<svg class="icon" viewBox="0 0 1024 1024" xmlns="http://www.w3.org/2000/svg" width="200" height="200"><defs><style/></defs><path d="M959.9 511.7C959.9 264.4 759.4 64 512 64 264.6 64 64 264.4 64 511.7c0 228.4 171.1 416.8 392.3 444.2 19.9 3.9 40.2 5.1 60.4 3.4 245.3-2.5 443.2-202 443.2-447.6zm-64 6.3c-1.3-22-4.2-43.9-8.7-65.4.4-7.1.5-14.3.3-21.5 6.1 28.5 8.9 57.7 8.4 86.9zM128 511.7c0-27.2 2.8-53.6 8.2-79.2 16.6 17.7 55.7 17.4 65.2-9.2 17.1 10.2 40 12 40 32.3 0 67.1 2.4 138.9 63.3 140.1 1.7 0 34 12.2 49.4 52 5.3 13.8 26.3 0 49.3 0 11.5 0 0 19.4 0 61.2 0 41.7 89.9 105.9 89.9 105.9-.4 27.7.7 50 3 67.8-20.3-.4-37.4 2.3-50.9 6.9C265.1 858.1 128 700.9 128 511.7zm478.5 372c-2-9.7-10.7-15.1-26.6-10.9 12.7-54 18.8-84.2 45.3-107.2 38.3-33.2 4.5-70.1-24.6-65.7-23 3.5-8.4-28.5-29-30.3-20.5-1.7-47.3-42.4-76.8-56.5-15.6-7.4-31-27.3-55.1-28.3-21.4-.8-52.6 18.1-52.6 3.5 0-46.9-4.8-80.4-5.7-93.8-.8-10.7-7-3.6 21.9-2.9 15.7.4 8-31.6 23.6-32.8 15.3-1.2 51.7 14.3 61 8.1 8.7-5.8 63.4 143.8 63.4 24.7 0-14.1-7.3-38.7 0-52.1 29-52.8 56-95.9 53.6-102.2-1.4-3.6-29.6-6.5-52.2 1.1-7.6 2.6 2.4 14.5-8.6 17.1-41 9.5-77.2-11.1-64.5-30.4 13-19.7 60.1-8.6 64.2-48.3 2.3-22.7 4.3-49 5.7-68.6 55.2 8.7 49.1-71.6-33-80.2 161.9 1.9 305.2 105.1 358.3 257.9-2.5-2.3-5.7-3.8-9.2-4.2-24.8-62-85-17.1-64.6 37.6-109.4 84.1-81.4 142.8-45.5 176.5 18.9 17.6 37 44.2 48.7 63.2-12.8 37.3 47.1 22.4 76.6-40.8C843 749 738.6 850.1 606.5 883.7z" fill="#fff"/></svg>