<?xml version="1.0" encoding="utf-8"?>
<!-- Generator: Adobe Illustrator 21.0.0, SVG Export Plug-In . SVG Version: 6.00 Build 0)  -->
<svg version="1.1" id="图层_1" xmlns="http://www.w3.org/2000/svg" xmlns:xlink="http://www.w3.org/1999/xlink" x="0px" y="0px"
	 viewBox="0 0 1024 1024" style="enable-background:new 0 0 1024 1024;" xml:space="preserve">
<style type="text/css">
	.st0{opacity:0.7;}
	.st1{fill-rule:evenodd;clip-rule:evenodd;fill:#FFFFFF;}
</style>
<g>
	<g class="st0">
		<g>
			<path class="st1" d="M90,605.3v130.7l430.6,223.9L934,735.9V615.3L520.6,839.3L90,605.3z M847.9,701.5l51.7-34.5v51.7l-51.7,34.4
				V701.5z M90,450.2v130.7l430.6,223.9L934,580.9V460.3L520.6,684.2L90,450.2z M847.9,546.4l51.7-34.4v51.7l-51.7,34.4V546.4z
				 M520.6,529.2L90,295.2v130.7l430.6,223.9L934,425.9V316.2L520.6,529.2z M899.5,408.7l-51.7,34.4v-51.7l51.7-34.5V408.7z"/>
		</g>
	</g>
	<path class="st1" d="M520.6,529.2l413.4-213L512,64.2L90,295.2L520.6,529.2z"/>
</g>
</svg>
