<?xml version="1.0" encoding="utf-8"?>
<!-- Generator: Adobe Illustrator 21.0.0, SVG Export Plug-In . SVG Version: 6.00 Build 0)  -->
<svg version="1.1" id="图层_1" xmlns="http://www.w3.org/2000/svg" xmlns:xlink="http://www.w3.org/1999/xlink" x="0px" y="0px"
	 viewBox="0 0 1024 1024" style="enable-background:new 0 0 1024 1024;" xml:space="preserve">
<style type="text/css">
	.st0{opacity:0.7;fill:#FFFFFF;}
	.st1{fill:#FFFFFF;}
</style>
<g>
	<path class="st0" d="M942.1,604.8l0.5-183c0,7.2-0.7,14.5-1.8,21.7c-0.2,1.1-0.3,2.1-0.5,3.2c-1.3,7.3-3.1,14.5-5.4,21.7
		c-0.4,1.3-1.1,2.6-1.5,3.9c-2.1,5.8-4.5,11.5-7.3,17.2c-1.1,2.3-2.4,4.6-3.6,6.8c-2.6,4.8-5.5,9.7-8.7,14.4c-1.5,2.2-3,4.5-4.6,6.7
		c-3.3,4.6-7.1,9.1-10.9,13.6c-2.1,2.5-4,5-6.3,7.4c-4.9,5.3-10.3,10.5-15.9,15.6c-1.6,1.4-2.9,2.9-4.5,4.3
		c-7.4,6.5-15.4,12.8-23.9,18.9c-2.3,1.6-4.9,3.2-7.3,4.8c-7.3,5-14.7,10-22.9,14.7c-9.8,5.7-20,11-30.4,16
		c-3.4,1.6-6.9,3.1-10.4,4.6c-7.2,3.3-14.5,6.4-22,9.4c-4.2,1.6-8.4,3.2-12.7,4.7c-7.1,2.6-14.3,5.1-21.6,7.4
		c-4.5,1.4-8.9,2.8-13.5,4.1c-7.5,2.2-15.1,4.2-22.8,6.1c-4.4,1.1-8.7,2.2-13.1,3.3c-8.8,2-17.7,3.7-26.6,5.4
		c-3.4,0.6-6.8,1.4-10.2,2c-12.4,2.1-24.9,3.9-37.5,5.3c-2.6,0.3-5.2,0.4-7.8,0.7c-10,1-20.1,1.9-30.2,2.5
		c-5.3,0.3-10.7,0.5-16.1,0.7c-7.8,0.3-15.7,0.6-23.5,0.7c-5.6,0-11.3-0.1-16.9-0.2c-7.6-0.1-15.2-0.3-22.8-0.6
		c-5.7-0.3-11.4-0.6-17.1-1c-7.5-0.5-14.9-1.1-22.4-1.9c-5.7-0.6-11.4-1.2-17-1.9c-8.3-1-16.5-2.2-24.7-3.5c-3.7-0.6-7.3-1.1-11-1.8
		c-12-2.1-24-4.5-35.7-7.2c-0.2,0-0.3-0.1-0.5-0.1c-11.6-2.7-22.9-5.8-34.1-9.2c-3.5-1-6.8-2.2-10.3-3.2c-6.8-2.1-13.4-4.5-20-6.8
		c-9.5-3.4-18.8-7.1-27.9-11c-4.2-1.8-8.4-3.4-12.5-5.3c-12.9-5.9-25.5-12.2-37.5-19.1c-84.8-49-127.2-113.2-127-177.4l-0.5,183
		c-0.2,64.2,42.2,128.5,127,177.4c11.9,6.9,24.5,13.2,37.4,19.1c4.1,1.9,8.3,3.5,12.5,5.3c9.1,3.9,18.4,7.6,27.9,11
		c2.3,0.8,4.4,1.9,6.7,2.6c4.4,1.5,8.9,2.8,13.3,4.2c3.4,1.1,6.8,2.2,10.3,3.2c11.2,3.3,22.5,6.4,34.1,9.1c0.2,0,0.3,0.1,0.5,0.1
		c11.7,2.8,23.7,5.1,35.7,7.2c3.6,0.6,7.3,1.2,11,1.8c4.8,0.8,9.6,1.7,14.5,2.3c3.4,0.5,6.8,0.7,10.1,1.1c5.7,0.7,11.3,1.3,17,1.9
		c7.4,0.7,14.9,1.4,22.4,1.9c5.7,0.4,11.4,0.8,17.1,1c7.6,0.3,15.2,0.5,22.9,0.6c5.6,0.1,11.2,0.2,16.8,0.2
		c7.9-0.1,15.7-0.3,23.6-0.7c5.4-0.2,10.7-0.3,16.1-0.7c1.5-0.1,3-0.1,4.4-0.2c8.7-0.6,17.3-1.5,25.9-2.4c2.5-0.3,5.1-0.4,7.6-0.7
		c12.6-1.4,25.1-3.2,37.5-5.3c3.4-0.6,6.8-1.3,10.2-2c8.9-1.7,17.9-3.4,26.6-5.4c4.4-1,8.7-2.1,13.1-3.2c7.7-1.9,15.3-3.9,22.8-6.1
		c4.5-1.3,9-2.7,13.5-4.1c7.3-2.3,14.5-4.8,21.6-7.4c4.3-1.6,8.5-3.1,12.7-4.7c7.5-3,14.8-6.1,22-9.4c3.4-1.6,7-3,10.4-4.6
		c10.4-5,20.6-10.3,30.4-16c2-1.2,4-2.4,6-3.6c5.9-3.6,11.3-7.4,16.8-11.1c2.4-1.6,5-3.2,7.3-4.8c8.5-6.1,16.5-12.4,23.9-18.9
		c1.6-1.4,3-2.9,4.5-4.3c5.6-5.1,11-10.3,15.9-15.6c2.2-2.4,4.2-4.9,6.3-7.4c2.8-3.2,5.8-6.4,8.3-9.7c1-1.3,1.7-2.6,2.6-3.8
		c1.6-2.2,3.1-4.5,4.6-6.7c3.2-4.8,6.1-9.6,8.7-14.4c1.2-2.3,2.5-4.6,3.6-6.8c2.8-5.7,5.2-11.4,7.3-17.2c0.5-1.3,1.1-2.6,1.5-3.9
		c2.1-6.4,3.9-12.9,5.1-19.4c0.1-0.8,0.2-1.5,0.3-2.3c0.2-1.1,0.3-2.1,0.5-3.2C941.3,619.3,942.1,612.1,942.1,604.8z"/>
	<g>
		<g>
			<path class="st1" d="M815.5,244.3c-168.6-97.3-441-97.3-608.5,0c-167.6,97.4-166.7,255.2,1.9,352.5
				c168.7,97.4,441.1,97.4,608.7,0C985.1,499.5,984.2,341.7,815.5,244.3z M767.8,486.2l-1.9,4.8c-5,8.9-16.4,16.8-18.7,18.3
				c-4.4,3.2-13.7,9.8-30,14.4c-7,1.9-13.1,2.9-17.7,3.7l-17.7,0.2c-32.2,0.2-104.8,0.8-176.6,1l-67.1,0.1c-62,0-97.6-0.5-111.9-1.5
				c-47.5-3.3-66.1-28.7-69.3-41.6c-0.2-2-2.6-107.3-1.5-146c0.8-16.6,9.1-28.5,24-34.3c17.6-7.1,39.2-7.9,47.7-7.9
				c4.1,0,6.4,0.2,6.8,0.2l374.3-1.7l8.4,1.4l3.4,2.5l1.3,10.1l-4.6,4.4c-45.3,30.2-153.1,101.6-177.5,111.7
				c-10.2,4.2-21.1,6.3-32.8,6.4c-14.7,0-27.1-3.4-33.9-6.5l-106.5-56.1l-3.3-11l-0.6-4.9l17.9-0.7l107.7,56.5c0.4,0.2,7.7,3,18.2,3
				c7,0,13.5-1.3,19.4-3.8c17.8-7.4,100.1-60.8,149.4-93.5L330,317c-18.7,0-29.8,1.8-35.1,4.7c-8,4.3-12.2,10.5-12.4,18.4
				c-1,37.7,1.3,142.2,1.5,143.5c0,0,6.8,21.4,44.9,24c14.7,1,55.6,1.5,121.6,1.5l54.8-0.1c65.2-0.2,131.1-0.7,166.5-1l25-0.2
				c4.3-1,14-3.1,22.3-7.2c7.1-3.7,14.9-7.7,20.2-14.4c2.4-3.2,2.9-4.4,3-4.9c1.4-11.1-0.8-76.6-1.8-104.6l-0.4-14.8l2-3.9
				c2.3-2.7,6.5-4.4,11-4.4c8,0,13.9,4,14,9.6l1.8,118.6L767.8,486.2z M577.1,454.2l-2.6,4.1c-2.5,2.5-6.6,4-11.3,4l-104.6,0.4h0
				c-7.7,0-13.8-4.3-13.9-9.8l0-1.9l2.4-3.8c2.5-2.6,6.8-4.2,11.4-4.2l104.6-0.3c8,0,13.9,4,14,9.6L577.1,454.2z"/>
		</g>
	</g>
</g>
</svg>
