<?xml version="1.0" encoding="utf-8"?>
<!-- Generator: Adobe Illustrator 21.0.0, SVG Export Plug-In . SVG Version: 6.00 Build 0)  -->
<svg version="1.1" id="图层_1" xmlns="http://www.w3.org/2000/svg" xmlns:xlink="http://www.w3.org/1999/xlink" x="0px" y="0px"
	 viewBox="0 0 1024 1024" style="enable-background:new 0 0 1024 1024;" xml:space="preserve">
<style type="text/css">
	.st0{fill:#FFFFFF;}
	.st1{fill:#C1D4FF;}
	.st2{opacity:0.8;fill:#C1D4FF;}
	.st3{opacity:0.6;fill:#C1D4FF;}
</style>
<g>
	<g>
		<polygon class="st0" points="153.6,472.8 180.5,457.2 290.2,520.5 263.4,536.2 		"/>
	</g>
	<g>
		<polygon class="st0" points="198.5,308 225.3,292.4 335.1,355.8 308.2,371.4 		"/>
	</g>
	<g>
		<path class="st0" d="M285.2,338.8c0.4-0.1,0.7-0.2,1.1-0.3c3-0.7,6.1-1.2,9.3-1.4c0.3,0,0.6-0.1,1-0.1c3.4-0.3,6.8-0.3,10.4-0.2
			c0.2,0,0.3,0,0.5,0c3.7,0.2,7.5,0.6,11.3,1.3c0.2,0,0.3,0.1,0.5,0.1c3.7,0.7,7.6,1.6,11.4,2.7c0.3,0.1,0.7,0.2,1,0.3
			c3.8,1.2,7.8,2.5,11.7,4.1c0.2,0.1,0.5,0.2,0.7,0.3c4.1,1.7,8.2,3.6,12.4,5.8l83.6-49.4c-2-1-4-2-5.9-2.9c-2.2-1-4.3-2-6.5-2.8
			c-0.2-0.1-0.5-0.2-0.7-0.3c-0.1,0-0.2-0.1-0.3-0.1c-2.3-0.9-4.6-1.8-6.9-2.6c-1.5-0.5-3-1-4.5-1.4c-0.3-0.1-0.7-0.2-1-0.3
			c-0.2-0.1-0.5-0.2-0.7-0.2c-2-0.6-4-1.1-6-1.5c-1.6-0.4-3.2-0.7-4.7-0.9c-0.2,0-0.3-0.1-0.5-0.1c-0.1,0-0.2-0.1-0.4-0.1
			c-1.8-0.3-3.6-0.6-5.4-0.8c-1.8-0.2-3.5-0.3-5.2-0.4c-0.1,0-0.2,0-0.4,0c-0.2,0-0.3,0-0.5,0c-1.4-0.1-2.9-0.1-4.3-0.1
			c-1.7,0-3.3,0.1-4.9,0.2c-0.4,0-0.8,0.1-1.1,0.1c-0.3,0-0.7,0.1-1,0.1c-0.9,0.1-1.8,0.1-2.8,0.3c-1.6,0.2-3.2,0.5-4.8,0.8
			c-0.6,0.1-1.2,0.3-1.8,0.4c-0.4,0.1-0.8,0.2-1.1,0.3c-0.6,0.2-1.2,0.3-1.8,0.4c-1.6,0.4-3.1,0.9-4.7,1.4c-0.7,0.3-1.4,0.6-2.1,0.8
			c-0.4,0.2-0.8,0.3-1.1,0.4c-0.5,0.2-1,0.4-1.5,0.6c-1.6,0.7-3.2,1.5-4.8,2.3c-0.8,0.4-1.6,0.9-2.4,1.3l-83.6,49.4
			c2.7-1.6,5.6-3,8.6-4.2c0.4-0.2,0.8-0.3,1.1-0.4C279.4,340.5,282.3,339.6,285.2,338.8z"/>
		<path class="st0" d="M936.1,763c-0.1-1.1-0.2-2.3-0.3-3.4c-0.1-0.8-0.1-1.7-0.2-2.5c-0.1-0.9-0.1-1.8-0.2-2.8
			c-0.3-2.7-0.6-5.4-1-8.1c-0.1-0.8-0.2-1.5-0.4-2.3c-0.1-0.6-0.2-1.2-0.3-1.9c-0.2-1.1-0.3-2.3-0.5-3.4c-0.4-2.4-0.9-4.8-1.4-7.1
			c-0.2-1-0.5-2-0.7-3c-0.1-0.5-0.2-1-0.4-1.6c-0.2-0.8-0.4-1.6-0.5-2.4c-0.5-2.2-1.1-4.5-1.7-6.7c-0.5-1.7-0.9-3.4-1.4-5.1
			c-0.1-0.3-0.2-0.6-0.2-0.8c-0.1-0.3-0.1-0.5-0.2-0.8c-0.6-2.2-1.3-4.3-2-6.5c-0.7-2.2-1.4-4.3-2.2-6.4c-0.1-0.4-0.3-0.7-0.4-1.1
			c-0.1-0.3-0.2-0.6-0.4-1c-0.5-1.4-1-2.8-1.6-4.3c-0.8-2.1-1.6-4.2-2.5-6.2c-0.5-1.2-1-2.4-1.5-3.6c-0.2-0.4-0.3-0.7-0.5-1.1
			c-0.2-0.5-0.4-1-0.6-1.4c-0.9-2-1.8-4-2.7-6c-0.9-1.9-1.8-3.9-2.8-5.8c-0.2-0.3-0.4-0.7-0.5-1c-0.1-0.3-0.3-0.6-0.4-0.9
			c-0.6-1.3-1.2-2.5-1.9-3.8c-0.9-1.8-1.9-3.6-2.9-5.4c-0.9-1.6-1.8-3.3-2.7-4.9c0-0.1-0.1-0.2-0.1-0.2c0-0.1-0.1-0.2-0.1-0.2
			c-1-1.8-2-3.5-3-5.2c-1-1.7-2.1-3.5-3.1-5.2c-0.6-1-1.3-2-1.9-3c-0.2-0.3-0.4-0.6-0.6-1c-0.3-0.5-0.6-1-1-1.5
			c-1.2-1.8-2.4-3.6-3.6-5.4c-1.4-2-2.8-4-4.2-6c-0.1-0.1-0.2-0.3-0.3-0.4c-0.1-0.1-0.1-0.2-0.2-0.3c-2-2.8-4.1-5.5-6.2-8.2
			c-0.5-0.6-1-1.2-1.5-1.8c-2.8-3.5-5.6-6.8-8.5-10.1c-1.1-1.2-2.2-2.6-3.3-3.8c-4-4.4-8.2-8.6-12.4-12.7c-0.1-0.1-0.2-0.3-0.4-0.4
			c-2.1-2-4.2-3.8-6.4-5.6c-1.6-1.4-3.1-2.9-4.7-4.2c-0.1-0.1-0.2-0.2-0.3-0.3c-3.4-2.8-6.9-5.5-10.4-8c-0.2-0.1-0.4-0.3-0.6-0.4
			c-0.8-0.5-1.5-1-2.3-1.5c-2.2-1.5-4.4-3.1-6.7-4.5c-1.3-0.8-2.6-1.6-3.9-2.4c-1.2-0.7-2.4-1.4-3.6-2c-1-0.5-1.9-1-2.9-1.5
			l-83.6,49.4c2.2,1.1,4.4,2.3,6.5,3.6c3.6,2.1,7.1,4.4,10.6,6.8c0.8,0.5,1.5,1,2.3,1.5c3.8,2.7,7.6,5.6,11.3,8.7
			c1.6,1.3,3.2,2.8,4.7,4.2c2.3,2,4.5,3.9,6.7,6c4.2,4,8.4,8.3,12.4,12.7c1.1,1.2,2.2,2.5,3.3,3.8c2.9,3.3,5.7,6.6,8.5,10.1
			c2.7,3.4,5.4,6.8,7.9,10.3c0.1,0.1,0.2,0.3,0.3,0.4c3,4.2,6,8.6,8.8,13c0.2,0.3,0.4,0.7,0.6,1c2.8,4.5,5.6,9,8.2,13.6
			c0,0.1,0.1,0.2,0.1,0.2c2.6,4.6,5.1,9.3,7.5,14c0.1,0.3,0.3,0.6,0.4,0.9c2.3,4.7,4.5,9.5,6.6,14.3c0.2,0.4,0.3,0.7,0.5,1.1
			c2,4.7,3.9,9.4,5.6,14.1c0.1,0.3,0.2,0.6,0.4,0.9c1.8,4.9,3.4,9.8,4.9,14.8c0.1,0.3,0.2,0.5,0.2,0.8c1.4,4.7,2.6,9.5,3.7,14.2
			c0.1,0.5,0.2,1,0.4,1.6c1,4.5,1.9,9.1,2.6,13.6c0.1,0.6,0.2,1.2,0.3,1.8c0.7,4.4,1.2,8.8,1.6,13.2c0.1,0.8,0.1,1.7,0.2,2.5
			c0.3,4.6,0.5,9.1,0.5,13.6c0,4.6-0.2,8.9-0.6,13.1c-0.1,1.6-0.4,3.1-0.6,4.6c-0.3,2.7-0.7,5.3-1.1,7.8c-0.3,1.6-0.7,3.2-1,4.7
			c-0.5,2.3-1.1,4.6-1.7,6.7c-0.4,1.5-0.9,3-1.5,4.5c-0.7,2-1.5,4-2.3,5.9c-0.6,1.4-1.2,2.7-1.8,4c-0.9,1.8-1.9,3.6-2.9,5.3
			c-0.7,1.2-1.4,2.4-2.1,3.5c-1.1,1.7-2.3,3.2-3.5,4.7c-0.8,1-1.5,2-2.3,2.9c-1.4,1.6-2.9,3-4.5,4.4c-0.7,0.7-1.4,1.4-2.2,2.1
			c-2.4,1.9-4.8,3.7-7.4,5.3l83.6-49.4c2.6-1.5,5.1-3.3,7.4-5.3c0.8-0.6,1.5-1.4,2.2-2.1c1.5-1.4,3-2.8,4.5-4.4
			c0.8-0.9,1.6-1.9,2.3-2.9c1.2-1.5,2.4-3.1,3.5-4.8c0.7-1.1,1.4-2.3,2.1-3.5c1-1.7,2-3.5,2.9-5.3c0.6-1.3,1.2-2.7,1.8-4
			c0.8-1.9,1.6-3.9,2.3-5.9c0.5-1.5,1-2.9,1.5-4.4c0.6-2.2,1.2-4.4,1.7-6.7c0.4-1.6,0.7-3.1,1-4.7c0.5-2.5,0.8-5.2,1.1-7.8
			c0.2-1.6,0.4-3,0.6-4.6c0-0.4,0.1-0.7,0.1-1.1c0.3-3.9,0.5-7.9,0.5-12c0-0.1,0-0.2,0-0.3C936.4,769.6,936.3,766.4,936.1,763z"/>
		<path class="st0" d="M808.6,532.8c-0.1-1.7-0.3-3.5-0.4-5.2c-0.1-1.3-0.2-2.5-0.3-3.8c-0.1-1.4-0.2-2.8-0.3-4.3
			c-0.4-4.1-0.9-8.2-1.5-12.4c-0.2-1.2-0.4-2.3-0.6-3.5c-0.1-0.9-0.3-1.9-0.4-2.8c-0.3-1.8-0.5-3.5-0.8-5.3
			c-0.6-3.6-1.3-7.3-2.1-10.9c-0.3-1.5-0.7-3-1-4.5c-0.2-0.8-0.4-1.6-0.5-2.4c-0.3-1.3-0.6-2.5-0.9-3.8c-0.8-3.4-1.7-6.8-2.6-10.2
			c-0.7-2.5-1.4-5.1-2.2-7.6c-0.1-0.4-0.2-0.9-0.4-1.3c-0.1-0.4-0.2-0.8-0.4-1.2c-1-3.3-2-6.6-3.1-9.9c-1.1-3.3-2.2-6.6-3.4-9.8
			c-0.2-0.5-0.4-1-0.6-1.6c-0.2-0.5-0.4-1-0.5-1.5c-0.8-2.2-1.6-4.4-2.5-6.6c-1.2-3.2-2.5-6.4-3.8-9.5c-0.7-1.8-1.5-3.6-2.3-5.4
			c-0.2-0.5-0.5-1.1-0.7-1.6c-0.3-0.8-0.6-1.6-1-2.3c-1.3-3.1-2.7-6.1-4.1-9.1c-1.4-2.9-2.8-5.9-4.2-8.8c-0.2-0.5-0.5-1-0.8-1.5
			c-0.2-0.4-0.4-0.8-0.6-1.2c-1-2-1.9-3.9-3-5.9c-1.4-2.8-2.9-5.5-4.4-8.3c-1.3-2.4-2.7-4.9-4-7.3c-0.1-0.2-0.2-0.3-0.3-0.5
			c-0.1-0.1-0.2-0.3-0.2-0.4c-1.5-2.7-3.1-5.3-4.6-8c-1.6-2.7-3.2-5.3-4.8-7.9c-0.9-1.5-1.9-2.9-2.8-4.4c-0.3-0.5-0.7-1-1-1.5
			c-0.5-0.8-1-1.6-1.5-2.4c-1.8-2.8-3.7-5.6-5.6-8.3c-2.1-3-4.2-6-6.3-9c-0.2-0.2-0.3-0.5-0.5-0.7c-0.1-0.1-0.2-0.3-0.3-0.4
			c-3.1-4.3-6.2-8.4-9.4-12.5c-0.8-1-1.6-1.8-2.3-2.8c-4.2-5.3-8.6-10.4-13-15.4c-1.7-1.9-3.3-3.9-5-5.7
			c-6.1-6.7-12.4-13.2-18.9-19.3c-0.2-0.2-0.4-0.4-0.6-0.6c-3.1-2.9-6.4-5.6-9.6-8.4c-2.5-2.2-4.9-4.5-7.4-6.5
			c-0.2-0.1-0.3-0.3-0.5-0.4c-5.2-4.3-10.5-8.3-15.9-12.2c-0.3-0.2-0.6-0.4-0.9-0.6c-1.2-0.8-2.4-1.6-3.5-2.4
			c-3.4-2.3-6.7-4.7-10.1-6.8c-2-1.2-4-2.5-6-3.6c-2.4-1.4-4.7-2.7-7.1-4c-3.8-2.1-7.6-4-11.4-5.8c-0.1-0.1-0.2-0.1-0.4-0.2
			c-0.3-0.1-0.5-0.2-0.8-0.3c-3-1.4-6.1-2.8-9.1-4c-2.9-1.2-5.7-2.2-8.6-3.2c-0.1,0-0.2-0.1-0.4-0.1c-0.1,0-0.1-0.1-0.2-0.1
			c-2.9-1-5.7-1.9-8.5-2.7c-2.7-0.8-5.4-1.5-8.1-2.1c-0.2-0.1-0.4-0.1-0.7-0.1c-0.3-0.1-0.5-0.1-0.8-0.2c-2-0.4-4.1-0.9-6.1-1.2
			c-2.5-0.4-4.9-0.8-7.3-1c-0.8-0.1-1.6-0.1-2.5-0.2c-0.5,0-1-0.1-1.5-0.1c-1-0.1-2.1-0.2-3.1-0.3c-2.3-0.1-4.6-0.2-6.8-0.2
			c-1.7,0-3.4,0.1-5,0.2c-0.3,0-0.6,0-0.8,0c-0.3,0-0.5,0-0.8,0c-2.2,0.1-4.4,0.3-6.6,0.6c-2.2,0.3-4.3,0.6-6.4,1
			c-0.3,0.1-0.6,0.1-0.9,0.2c-0.3,0.1-0.6,0.1-0.9,0.2c-1.6,0.3-3.1,0.7-4.6,1.1c-2.2,0.6-4.3,1.2-6.4,2c-0.7,0.2-1.4,0.5-2.1,0.8
			c-0.5,0.2-0.9,0.4-1.4,0.6c-0.9,0.4-1.9,0.7-2.8,1.1c-2.2,1-4.4,2-6.5,3.1c-1.1,0.6-2.1,1.2-3.2,1.8h0l-83.6,49.4
			c4-2.4,8.2-4.3,12.5-6c0.5-0.2,0.9-0.4,1.4-0.6c4.2-1.6,8.6-2.9,13.1-3.8c0.3-0.1,0.6-0.1,0.9-0.2c4.8-1,9.7-1.6,14.7-1.9
			c0.3,0,0.6,0,0.8,0c4.9-0.2,9.9-0.1,15,0.3c0.5,0,1,0.1,1.5,0.1c5.2,0.5,10.5,1.3,15.9,2.5c0.3,0.1,0.5,0.1,0.8,0.2
			c5.7,1.3,11.5,2.9,17.5,5c0.1,0,0.2,0.1,0.4,0.1c5.8,2,11.7,4.4,17.6,7.2c0.2,0.1,0.5,0.2,0.7,0.3c6.2,2.9,12.5,6.2,18.8,9.9
			c5.4,3.2,10.8,6.8,16.1,10.4c1.2,0.8,2.4,1.5,3.5,2.4c5.8,4.1,11.6,8.5,17.2,13.2c2.5,2.1,4.9,4.4,7.4,6.5c3.4,3,6.8,5.9,10.1,9
			c6.5,6.1,12.8,12.6,18.9,19.3c1.7,1.9,3.3,3.8,5,5.7c4.4,5,8.8,10.1,13,15.4c4.1,5.2,8.2,10.4,12.1,15.8c0.2,0.2,0.3,0.5,0.5,0.7
			c4.6,6.4,9.1,13,13.4,19.7c0.3,0.5,0.6,1,1,1.5c4.3,6.8,8.5,13.7,12.5,20.8c0.1,0.1,0.2,0.3,0.2,0.4c4,7,7.8,14.2,11.4,21.4
			c0.2,0.4,0.4,0.8,0.6,1.2c3.6,7.2,6.9,14.5,10.1,21.8c0.2,0.5,0.5,1.1,0.7,1.6c3,7.1,5.9,14.3,8.5,21.6c0.2,0.5,0.4,1,0.5,1.4
			c2.7,7.5,5.2,15,7.4,22.6c0.1,0.4,0.2,0.9,0.4,1.3c2.1,7.2,4,14.4,5.6,21.6c0.2,0.8,0.4,1.6,0.6,2.4c1.5,6.9,2.9,13.8,4,20.7
			c0.2,0.9,0.3,1.9,0.4,2.8c1,6.7,1.8,13.4,2.4,20.1c0.1,1.3,0.2,2.6,0.3,3.8c0.5,7,0.8,14,0.8,20.8c0,2.6-0.1,5.1-0.2,7.6
			l83.6-49.4c0.1-2.5,0.2-5,0.2-7.6c0-0.2,0-0.3,0-0.5C809,542.9,808.8,537.9,808.6,532.8z"/>
	</g>
	<path class="st1" d="M743,604.2c-2.2-1.3-4.4-2.4-6.6-3.6c0.1-2.5,0.2-5,0.2-7.6c0.3-119.8-83.5-265.5-187.3-325.5
		c-95.1-54.9-173.8-18.8-186.6,79.7c-73.3-37.6-131.6-1.1-131.8,84.6c-0.2,87.5,60.2,193.7,135.6,239.3L748.7,892
		c65,33.6,116.8,1.5,117-74.5C866,739.1,811.1,643.5,743,604.2z M654.9,636.9l-1.5,20.3l-17.3-3.1l-13.8-2.3l6.3,18.7l7.7,24
		l-12.1,9.3c-4.2,3.3-9.2,5.7-14.2,8.1l-14.2,5.6L579,698.4L566,683.9l-5,12.6l-6.1,16.8l-18.4-9l-10.2-5.5l-10.2-6.3l-18.4-12.2
		l-6.3-23.5l-4.6-18.5l-13.1-0.6l-17-0.5l-14.1-21.9c-4.9-7.7-9.8-16.2-14.1-24.4l-12-23.1l7.8-15l6.4-11.3l-13.8-13.6l-17.3-16.9
		l-1.3-21.9c-0.7-8.1-0.7-16.2,0.1-23.5l1.5-20.3l17.3,2.7l13.8,2.7l-6.3-18.7l-7.7-24l12.1-9.3c4.2-3.2,8.8-5.9,14.2-8.1l14.2-5.6
		l16.9,18.7l13,14.9l4.7-13.2l6.4-16.2l18.4,9l10.2,5.1l10.2,6.7l18.3,12.2l6,23.3l4.9,18.7l13.1,0.2l16.6,0.7l14.1,21.9
		c5.3,8,9.9,15.9,14.4,24.6l12,23.2l-8.2,14.8l-6.1,11.5l13.4,13l17.6,17.5l1.3,21.9C655.6,621.5,655.6,629.6,654.9,636.9z"/>
	<path class="st2" d="M597.9,615.9l1.1-3.1l28.6,4.8c0.7-5.7,0.7-11.8,0-17.9l-28.6-28.3l-1-4.7c-1-5.5-3.1-12-5.3-18.1L591,544
		l13.1-23.7c-3.2-6.3-7-13-10.9-19.3l-27.6-0.9l-3.2-3.5c-4.2-5.3-8.5-9.8-13.1-14l-3.2-3l-10.1-38.8l-7.8-4.9l-7.8-4l-10.3,26.9
		l-3.5-0.8c-4.2-0.8-8.8-1.4-13.1-1l-3.2-0.2L463.3,426c-3.9,1.8-7.8,4-11,6.7l12.6,38.6l-1.4,2.8c-2.5,3.4-4.3,7.7-5.7,11.7
		l-1.1,3.5l-28.6-4.7c-0.4,5.5-0.4,11.5,0,17.8l28.6,28.3l1.1,4.3c1.4,6.1,3.1,12,5.6,18.3l1.4,4.5L451.9,582
		c3.2,6.3,7,13,10.9,18.9l27.2,0.7l3.2,3.9c4.2,4.9,8.8,10,13.1,13.6l3.5,3.2l10.2,38.8l7.8,4.9l7.8,4.1l10.3-27l3.2,0.6
		c4.6,1.4,8.9,1.4,13.1,1.4l3.2-0.2l27.5,30.9c3.9-1.4,7.8-3.6,11-6.2l-13-39.2l1.8-2.6C594.7,624.2,596.8,620.5,597.9,615.9z
		 M527.9,606c-26.5-15.3-47.6-52.3-47.5-82.3c0.1-30.4,21.3-42.5,47.8-27.2c26.1,15.1,47.6,51.9,47.5,82.3
		C575.7,608.8,554,621.1,527.9,606z"/>
	<path class="st0" d="M318.6,123.3c-9.3-5.4-17.8-5.9-23.9-2.3l-26.9,15.6c6.1-3.6,14.6-3.1,23.9,2.3c18.7,10.8,33.8,36.9,33.7,58.1
		c0,10.7-3.8,18.2-9.8,21.7l26.9-15.6c6.1-3.5,9.8-11.1,9.8-21.7C352.4,160.2,337.4,134.1,318.6,123.3z"/>
	<path class="st3" d="M526.8,529.3c-10.6-6.1-19.1-1.3-19.1,10.9c0,12.2,8.4,26.8,19,32.9c10.6,6.1,19.1,1.3,19.2-10.9
		C545.9,550.1,537.4,535.4,526.8,529.3z"/>
	<g>
		<polygon class="st0" points="322.5,189.5 349.4,173.8 459.1,237.2 432.3,252.8 		"/>
	</g>
	<g>
		<polygon class="st1" points="432.3,252.8 432.2,272.1 322.5,208.8 322.5,189.5 		"/>
	</g>
	<path class="st0" d="M193.5,244c-9.3-5.4-17.8-5.9-23.9-2.3l-26.9,15.6c6.1-3.6,14.6-3.1,23.9,2.3c18.7,10.8,33.8,36.9,33.7,58.1
		c0,10.7-3.8,18.2-9.8,21.7l26.9-15.6c6.1-3.5,9.8-11.1,9.8-21.7C227.3,280.8,212.2,254.8,193.5,244z"/>
	<g>
		<polygon class="st1" points="308.2,371.4 308.2,390.7 198.4,327.3 198.5,308 		"/>
	</g>
	<path class="st0" d="M148.2,407.2c-9.3-5.4-17.8-5.9-23.9-2.3l-26.9,15.6c6.1-3.6,14.6-3.1,23.9,2.3c18.7,10.8,33.8,36.9,33.7,58.1
		c0,10.7-3.8,18.2-9.8,21.7l26.9-15.6c6.1-3.5,9.8-11.1,9.8-21.7C182,444.1,166.9,418,148.2,407.2z"/>
	<g>
		<polygon class="st1" points="263.4,536.2 263.3,555.5 153.5,492.1 153.6,472.8 		"/>
	</g>
	<path class="st1" d="M291.7,138.9c-18.5-10.7-33.6-2.1-33.7,19.2c-0.1,21.5,15,47.6,33.5,58.3c18.8,10.8,33.9,2.2,33.9-19.3
		C325.5,175.8,310.5,149.8,291.7,138.9z M291.6,194.6c-8.1-4.7-14.7-16.1-14.6-25.5c0-9.3,6.7-13.1,14.8-8.4
		c8.2,4.7,14.8,16.1,14.7,25.4C306.5,195.6,299.9,199.4,291.6,194.6z"/>
	<g>
		<g>
			<path class="st1" d="M166.6,259.6c-18.5-10.7-33.6-2.1-33.7,19.2c-0.1,21.5,15,47.6,33.5,58.3c18.8,10.8,33.9,2.2,33.9-19.3
				C200.4,296.4,185.4,270.4,166.6,259.6z M166.5,315.3c-8.1-4.7-14.7-16.1-14.6-25.5c0-9.3,6.6-13.1,14.7-8.4
				c8.2,4.7,14.8,16.1,14.8,25.4C181.3,316.2,174.7,320,166.5,315.3z"/>
		</g>
	</g>
	<path class="st1" d="M121.3,422.8c-18.5-10.7-33.6-2.1-33.7,19.2c-0.1,21.5,15,47.6,33.5,58.3c18.7,10.8,33.9,2.2,33.9-19.4
		C155.1,459.7,140.1,433.6,121.3,422.8z M121.2,478.5c-8.1-4.7-14.7-16.1-14.6-25.5c0-9.3,6.7-13.1,14.8-8.4
		c8.2,4.7,14.8,16.1,14.7,25.4C136.1,479.5,129.4,483.3,121.2,478.5z"/>
</g>
</svg>
