<?xml version="1.0" encoding="utf-8"?>
<!-- Generator: Adobe Illustrator 21.0.0, SVG Export Plug-In . SVG Version: 6.00 Build 0)  -->
<svg version="1.1" id="图层_1" xmlns="http://www.w3.org/2000/svg" xmlns:xlink="http://www.w3.org/1999/xlink" x="0px" y="0px"
	 viewBox="0 0 1024 1024" style="enable-background:new 0 0 1024 1024;" xml:space="preserve">
<style type="text/css">
	.st0{opacity:0.7;}
	.st1{fill:#FFFFFF;}
</style>
<g>
	<g class="st0">
		<g>
			<path class="st1" d="M81.3,584.9v233L288.1,934l206.8-116.1v-233L288.1,468.7L81.3,584.9z M451.4,618.5l-163.1,83.1l-163.1-83.1
				l163.1-93.5L451.4,618.5z M735.9,468.7L529.1,584.9v233L735.9,934l206.8-116.1v-233L735.9,468.7z M736,701.6l-163.1-83.1
				L736,524.9l163.1,93.5L736,701.6z"/>
		</g>
	</g>
	<g>
		<g>
			<path class="st1" d="M512.2,90L305.4,206.2v233l206.8,116.1l206.8-116.1v-233L512.2,90z M512.3,322.9l-163.1-83.1l163.1-93.5
				l163.1,93.5L512.3,322.9z"/>
		</g>
	</g>
</g>
</svg>
