<?xml version="1.0" encoding="utf-8"?>
<!-- Generator: Adobe Illustrator 21.0.0, SVG Export Plug-In . SVG Version: 6.00 Build 0)  -->
<svg version="1.1" id="图层_1" xmlns="http://www.w3.org/2000/svg" xmlns:xlink="http://www.w3.org/1999/xlink" x="0px" y="0px"
	 viewBox="0 0 1024 1024" style="enable-background:new 0 0 1024 1024;" xml:space="preserve">
<style type="text/css">
	.st0{fill:#FFFFFF;}
	.st1{opacity:0.7;fill:#FFFFFF;}
	.st2{opacity:0.7;fill:#C1D4FF;}
	.st3{opacity:0.3;fill:#FFFFFF;}
	.st4{fill:#C1D4FF;}
	.st5{fill:#5D95F9;}
	.st6{fill:#70A2F9;}
</style>
<g>
	<g>
		<path class="st0" d="M499.7,74.5c-4.8-0.4-9,3.2-9,8.3l-0.1,52.8c0,5.1,4.2,9.2,9,9.6c4.8,0.4,9-3.2,9-8.2l0.1-52.8
			C508.7,79,504.5,74.8,499.7,74.5z M499.5,196.6c-4.8-0.4-9,3.5-9,8.3l-0.1,69.3c0,4.8,4.2,8.9,9,9.2c4.8,0.4,9-3.2,9-7.9l0.1-69.3
			C508.4,201.4,504.3,197,499.5,196.6z M499.2,335.3c-4.8-0.4-9,3.2-9,7.9l-0.1,69.3c0,4.8,4.2,9.2,9,9.6c4.8,0.4,9-3.5,9-8.2
			l0.1-69.3C508.2,339.8,504,335.7,499.2,335.3z M499,473.7c-4.8-0.4-9,3.2-9,7.9l-0.1,69.3c0,4.8,4.2,9.2,9,9.6
			c4.8,0.4,9-3.5,9-8.3l0.1-69.3C507.9,478.2,503.8,474,499,473.7z M498.7,612.1c-4.8-0.4-9,3.2-9,8.2l-0.1,69c0,5.1,4.2,9.2,9,9.6
			c4.8,0.4,9-3.2,9-8.2l0.1-69C507.7,616.5,503.5,612.4,498.7,612.1z M498.4,750.4c-4.8-0.4-9,3.2-9,8.3l-0.1,69
			c0,5.1,4.2,9.2,9,9.6c4.8,0.4,9-3.2,9-8.2l0.1-69C507.4,754.9,503.3,750.8,498.4,750.4z M498.2,888.8c-4.8-0.4-9,3.5-9,8.3
			l-0.1,53.1c0,4.8,4.2,8.9,9,9.2c4.8,0.4,9-3.2,9-7.9l0.1-53.1C507.2,893.6,503,889.1,498.2,888.8z"/>
		<path class="st1" d="M508.9,64.6c-2.7-0.2-5.2,0.8-6.8,2.6l-9.2,9.9c1.7-1.8,4.2-2.8,6.8-2.6c4.8,0.4,9,4.5,9,9.6l-0.1,52.8
			c0,2.3-0.8,4.2-2.2,5.6l9.2-9.9c1.3-1.4,2.2-3.4,2.2-5.6l0.1-52.8C517.8,69.1,513.7,65,508.9,64.6z M508.6,186.7
			c-2.7-0.2-5.1,0.9-6.8,2.7l-9.2,9.9c1.7-1.8,4.1-2.9,6.8-2.7c4.8,0.4,9,4.8,9,9.6l-0.1,69.3c0,2.1-0.8,3.9-2.1,5.3l9.2-9.9
			c1.3-1.4,2.1-3.2,2.1-5.3l0.1-69.3C517.6,191.5,513.4,187.1,508.6,186.7z M508.4,325.4c-2.7-0.2-5.2,0.8-6.9,2.6l-9.2,9.9
			c1.7-1.8,4.2-2.8,6.9-2.6c4.8,0.4,9,4.5,9,9.2l-0.1,69.3c0,2.1-0.8,4.1-2.2,5.6l9.2-9.9c1.4-1.5,2.2-3.4,2.2-5.6l0.1-69.3
			C517.3,329.9,513.2,325.8,508.4,325.4z M508.1,463.8c-2.7-0.2-5.2,0.8-6.9,2.6l-9.2,9.9c1.7-1.8,4.2-2.8,6.9-2.6
			c4.8,0.4,9,4.5,9,9.2l-0.1,69.3c0,2.1-0.8,4.1-2.2,5.6l9.2-9.9c1.4-1.5,2.2-3.4,2.2-5.6l0.1-69.3
			C517.1,468.3,512.9,464.2,508.1,463.8z M507.9,602.2c-2.7-0.2-5.2,0.8-6.8,2.6l-9.2,9.9c1.7-1.8,4.2-2.8,6.8-2.6
			c4.8,0.4,9,4.5,9,9.6l-0.1,69c0,2.3-0.8,4.2-2.2,5.6l9.2-9.9c1.3-1.4,2.2-3.4,2.2-5.6l0.1-69C516.8,606.6,512.7,602.5,507.9,602.2
			z M507.6,740.5c-2.7-0.2-5.2,0.8-6.8,2.6l-9.2,9.9c1.7-1.8,4.2-2.8,6.8-2.6c4.8,0.4,9,4.5,9,9.6l-0.1,69c0,2.3-0.8,4.2-2.2,5.6
			l9.2-9.9c1.3-1.4,2.2-3.4,2.2-5.6l0.1-69C516.6,745,512.4,740.9,507.6,740.5z M507.3,878.9c-2.7-0.2-5.1,0.9-6.8,2.7l-9.2,9.9
			c1.7-1.8,4.1-2.9,6.8-2.7c4.8,0.4,9,4.8,9,9.6l-0.1,53.1c0,2.1-0.8,3.9-2.1,5.3l9.2-9.9c1.3-1.4,2.1-3.2,2.1-5.3l0.1-53.1
			C516.3,883.7,512.2,879.3,507.3,878.9z"/>
	</g>
	<path class="st0" d="M127,587.7c0.3-26.5,22-46.3,48.7-44.4l17.3,1.3l-0.2,108.9l-12.4-0.9c-29.5-2.1-53.1-27.4-53.3-56.6
		L127,587.7z"/>
	<path class="st1" d="M208.5,507.8c-14.7-1.1-27.9,4.5-36.8,14.1l-32.8,35.5c8.9-9.6,22.1-15.2,36.8-14.1l17.3,1.3l32.8-35.5
		L208.5,507.8z"/>
	<path class="st2" d="M181.7,269.3l40.9-44.3c15.6-16.9,34.1-31.2,55.2-42.3L236.9,227C215.8,238,197.3,252.4,181.7,269.3z"/>
	<path class="st0" d="M412.1,260.2L411,871.3c-112-7.8-205.2-97.9-217.4-209.3c-0.9-4.9-1.4-10.6-1.4-16.1l0.3-173.8l27.6,1.9
		l0.1-60.7l3.7-0.6l39.2-156.3c0,0.3,2.2,0.7,6.3,0.9C288.9,258.9,350.2,259.6,412.1,260.2z"/>
	<path class="st3" d="M797.4,469.6l0.1-60.7c-3.5-0.8-6.9-1.6-10.4-3l-31.3-177.2c-3.9,0-78.3,0.2-155.7-0.5l-39.7,44.3
		c77.4,0.6,151.8,0.5,155.7,0.5l31.3,177.2c3.5,1.4,6.9,2.2,10.4,3l-0.1,60.7l21,1.5l-0.3,165.8c-0.1,53-19.3,100.3-51.2,135.9
		l39.7-44.3c31.9-35.6,51.1-82.9,51.2-135.9l0.3-165.8L797.4,469.6z"/>
	<path class="st4" d="M716.1,273.1l31.3,177.2c3.5,1.4,6.9,2.2,10.4,3l-0.1,60.7l21,1.5l-0.3,165.8c-0.2,120-98.6,210.7-219.2,202.5
		l1.1-611.1C637.8,273.3,712.2,273.1,716.1,273.1z"/>
	<path class="st3" d="M828.5,544.5l-17.5-1.3l-32.8,35.5l17.5,1.3c26.7,1.9,48.3,25,48.5,51.7l0,8c-0.1,13.1-5,24.8-13,33.4
		l32.8-35.5c8-8.7,12.9-20.3,13-33.4l0-8C876.8,569.4,855.2,546.4,828.5,544.5z"/>
	<polygon class="st2" points="451.7,119.9 410.8,164.1 410.3,436.5 411.8,434.9 411,871.3 450.3,827 451.1,392.4 451.2,392.3 	"/>
	<path class="st2" d="M441.4,118.5c-64.8-4.7-122.7,19.8-161.8,62.2L238.7,225c39.1-42.4,97-66.9,161.8-62.2
		c3.4,0.2,6.9,1.1,10.3,1.3l40.9-44.3C448.3,119.6,444.8,118.8,441.4,118.5z"/>
	<path class="st4" d="M400.5,162.8c3.4,0.3,6.9,1.1,10.3,1.3l-0.5,272.4c-56-4.1-105.4-20.5-136.1-42.4l-0.1,32.5
		c-4.4,27.9-26.8,48.5-55,50.1l-0.1,70.9l-60-4.4c-20.9-35.7-32.6-87-32.5-130C126.3,333.8,168.4,263,236.9,227
		C276,183.4,334.7,158,400.5,162.8z"/>
	<path class="st4" d="M795.7,579.9c26.7,1.9,48.3,25,48.5,51.7l0,8c-0.3,29.2-24,51-53.5,49.1l-12.7-0.9l0.2-109.1L795.7,579.9z"/>
	<path class="st5" d="M876.4,329.1l-2.9-4.4l19.9-21.1c-11.6-45-47.6-82-92.8-95l13-13.8c-36.4-23.8-78-37.7-120.5-40.9l-2-0.1
		l-50.2,1.7l-1.7-16.7c-12-3.7-24.4-6.1-36.7-7.6l-41.6,44.2c12.3,1.5,24.7,3.8,36.7,7.6l1.7,16.7l50.2-1.7l2,0.1
		c41.1,3,81.3,16.4,116.8,38.8l-13.6,14.5c45.1,11.2,81.2,46.4,95,89.9l-21.1,22.5l6.3,9.6c13.4,26.9,21.1,57.1,21.1,88.5
		c-0.1,45-16.2,87.4-45.9,119.4l41.6-44.2c29.6-32,45.8-74.4,45.9-119.4C897.6,386.3,889.9,356.1,876.4,329.1z"/>
	<path class="st6" d="M560.8,175.5c12.3,1.5,24.7,3.8,36.7,7.6l1.7,16.7l50.2-1.7l2,0.1c42.5,3.1,84.1,17.1,120.5,40.8l-17.2,12.4
		c47.3,11.8,85.2,49.9,97.1,96.4l-23.3,15.9l6.3,9.6c13.4,26.9,21.1,57.1,21.1,88.5c-0.1,45-16.2,87.4-45.9,119.4l-52.8-3.9
		l0.1-60.7c-28.1-5.8-50.2-29.6-53.9-58.1l-0.5-35.9c-30.2,19.4-82.7,29.8-142.1,25.4L560.8,175.5z"/>
</g>
</svg>
