<?xml version="1.0" encoding="utf-8"?>
<!-- Generator: Adobe Illustrator 21.0.0, SVG Export Plug-In . SVG Version: 6.00 Build 0)  -->
<svg version="1.1" id="图层_1" xmlns="http://www.w3.org/2000/svg" xmlns:xlink="http://www.w3.org/1999/xlink" x="0px" y="0px"
	 viewBox="0 0 1024 1024" style="enable-background:new 0 0 1024 1024;" xml:space="preserve">
<style type="text/css">
	.st0{fill:#FFFFFF;}
	.st1{fill:#C1D4FF;}
</style>
<g>
	<g>
		<path class="st0" d="M153.6,259.9c3.6-0.8,7.3-1.4,11.1-1.7c0.4,0,0.8,0,1.2-0.1c3.7-0.3,7.4-0.3,11.3-0.2c0.6,0,1.2,0,1.9,0.1
			c4,0.2,8.2,0.7,12.4,1.4c0.5,0.1,1.1,0.2,1.6,0.3c4.3,0.8,8.7,1.8,13.2,3.1c0.4,0.1,0.8,0.2,1.2,0.3c4.8,1.4,9.6,3.1,14.6,5.1
			c0.1,0,0.2,0.1,0.3,0.1c5.1,2,10.2,4.4,15.4,7l107.9-62.7c-0.9-0.4-1.7-0.9-2.6-1.3c-2.2-1.1-4.4-2.1-6.6-3.1
			c-2.1-0.9-4.1-1.8-6.1-2.6c-0.1,0-0.2-0.1-0.3-0.1c-0.1,0-0.1-0.1-0.2-0.1c-2.2-0.9-4.4-1.7-6.6-2.5c-2.2-0.8-4.5-1.5-6.7-2.2
			c-0.4-0.1-0.7-0.2-1.1-0.3c-0.4-0.1-0.8-0.2-1.2-0.3c-1.5-0.4-3-0.9-4.4-1.2c-2.3-0.6-4.6-1.1-6.9-1.5c-0.6-0.1-1.2-0.2-1.8-0.3
			c-0.5-0.1-1.1-0.2-1.6-0.3c-1.2-0.2-2.4-0.4-3.5-0.6c-2.5-0.3-5-0.6-7.5-0.8c-0.5,0-0.9,0-1.4,0c-0.6,0-1.2,0-1.9-0.1
			c-1.5-0.1-3.1-0.2-4.6-0.1c-2.3,0-4.5,0.2-6.7,0.3c-0.4,0-0.8,0-1.2,0.1c-0.2,0-0.3,0-0.5,0c-3.2,0.3-6.3,0.7-9.4,1.3
			c-0.4,0.1-0.8,0.2-1.2,0.3c-1.9,0.4-3.8,1-5.6,1.5c-1.6,0.5-3.3,0.8-4.9,1.3c-0.4,0.1-0.7,0.4-1.1,0.5c-4.3,1.6-8.5,3.5-12.4,5.7
			L129.6,269c3.9-2.3,8.1-4.1,12.5-5.7c1.9-0.7,4-1.3,6-1.8C149.9,260.9,151.7,260.3,153.6,259.9z"/>
		<path class="st0" d="M942.3,763.4c-0.1-2.4-0.2-4.7-0.3-7.1c-0.1-1.1-0.2-2.1-0.3-3.2c0-0.5-0.1-1-0.1-1.4
			c-0.1-0.8-0.1-1.7-0.2-2.5c-0.2-2.4-0.5-4.8-0.8-7.2c-0.3-2.5-0.7-4.9-1.1-7.4c0,0,0-0.1,0-0.1c0-0.1,0-0.1,0-0.2
			c-0.4-2.4-0.8-4.8-1.2-7.1c-0.5-2.6-1-5.1-1.6-7.7c-0.2-0.8-0.4-1.7-0.6-2.5c-0.1-0.5-0.3-1.1-0.4-1.6c-0.3-1.2-0.5-2.4-0.8-3.5
			c-0.6-2.6-1.3-5.2-2-7.8c-0.5-1.8-1-3.6-1.6-5.4c-0.1-0.4-0.2-0.8-0.4-1.2c-0.1-0.4-0.2-0.8-0.4-1.2c-0.8-2.5-1.6-5.1-2.4-7.6
			c-0.8-2.5-1.7-5-2.6-7.5c-0.1-0.4-0.3-0.7-0.4-1.1c-0.1-0.3-0.3-0.7-0.4-1c-0.6-1.7-1.2-3.3-1.9-5c-0.9-2.4-1.9-4.8-2.9-7.1
			c-0.7-1.6-1.3-3.2-2-4.7c-0.1-0.3-0.3-0.7-0.4-1c-0.2-0.4-0.4-0.8-0.5-1.3c-1.1-2.4-2.1-4.8-3.2-7.1c-1.2-2.6-2.5-5.1-3.7-7.7
			c-0.2-0.3-0.3-0.6-0.5-0.9c-0.2-0.4-0.4-0.9-0.7-1.3c-1.1-2.2-2.3-4.5-3.4-6.7c-1.2-2.3-2.5-4.5-3.8-6.8c-0.8-1.5-1.6-3-2.5-4.4
			c-0.4-0.7-0.7-1.3-1.1-2c-1.3-2.3-2.8-4.4-4.2-6.7c-1.8-2.8-3.5-5.7-5.3-8.5c-0.4-0.6-0.7-1.1-1.1-1.7c-2.6-3.9-5.3-7.7-8-11.4
			c-0.4-0.5-0.7-1.1-1.1-1.6c0-0.1-0.1-0.1-0.1-0.2c-2.1-2.9-4.3-5.7-6.5-8.5c-1.7-2.1-3.3-4.2-5-6.2c-0.1-0.1-0.2-0.3-0.3-0.4
			c-0.1-0.1-0.2-0.2-0.2-0.3c-1.8-2.2-3.7-4.4-5.6-6.6c-1.9-2.1-3.8-4.2-5.7-6.3c-0.3-0.3-0.5-0.5-0.8-0.8c-0.3-0.3-0.6-0.6-0.9-1
			c-1.4-1.5-2.8-3-4.3-4.5c-2-2.1-4.1-4.1-6.1-6.1c-0.6-0.6-1.2-1.1-1.8-1.7c-0.5-0.4-0.9-0.9-1.4-1.3c-1.1-1-2.1-2-3.2-3
			c-2.1-1.9-4.3-3.8-6.5-5.6c-0.9-0.8-1.8-1.5-2.7-2.2c-0.5-0.4-1-0.8-1.5-1.2c-0.7-0.6-1.5-1.2-2.2-1.8c-2.1-1.7-4.2-3.3-6.4-4.9
			c-1.5-1.1-3.1-2.2-4.6-3.3c-0.3-0.2-0.6-0.4-0.9-0.6c-0.3-0.2-0.6-0.4-0.9-0.6c-2-1.4-4.1-2.8-6.2-4.1c-2-1.3-4.1-2.6-6.1-3.8
			c-0.5-0.3-1-0.6-1.4-0.8c-1.6-0.9-3.1-1.8-4.7-2.6c-1.1-0.6-2.1-1.1-3.1-1.7l-107.9,62.7c2.5,1.4,5.2,2.8,7.8,4.3
			c4.9,2.8,9.8,6,14.6,9.3c0.3,0.2,0.6,0.4,0.9,0.6c4.5,3.1,8.9,6.5,13.2,10c0.5,0.4,1,0.8,1.5,1.2c4.2,3.5,8.3,7.1,12.4,10.9
			c0.5,0.4,1,0.9,1.4,1.3c4.1,3.9,8.2,8,12.2,12.2c0.3,0.3,0.6,0.6,0.9,1c4.2,4.5,8.3,9.2,12.3,14c0.1,0.1,0.2,0.3,0.3,0.4
			c4,4.8,7.9,9.8,11.7,14.9c0.4,0.5,0.7,1,1.1,1.5c3.1,4.3,6.2,8.7,9.1,13.2c1.9,2.8,3.6,5.7,5.4,8.6c1.8,2.9,3.6,5.7,5.3,8.6
			c0.9,1.5,1.7,3,2.5,4.4c2.5,4.4,5,8.9,7.3,13.5c0.2,0.4,0.4,0.9,0.7,1.3c2.8,5.6,5.5,11.3,8,17c0.1,0.3,0.3,0.7,0.4,1
			c2.4,5.6,4.7,11.2,6.8,16.9c0.1,0.3,0.3,0.7,0.4,1c2.1,5.8,4.1,11.6,5.8,17.4c0.1,0.4,0.2,0.8,0.4,1.2c1.7,5.6,3.1,11.1,4.4,16.7
			c0.1,0.5,0.3,1.1,0.4,1.6c1.3,5.8,2.5,11.6,3.4,17.4c0,0,0,0.1,0,0.1c0.9,5.8,1.6,11.5,2.1,17.3c0,0.5,0.1,1,0.1,1.4
			c0.4,5.7,0.7,11.4,0.7,16.9c0,5.6-0.3,11-0.8,16.1c0,0.5-0.1,0.9-0.1,1.4c-0.5,4.8-1.1,9.3-2,13.7c-0.1,0.6-0.2,1.2-0.3,1.7
			c-0.9,4.3-1.9,8.3-3.2,12.2c-0.2,0.7-0.5,1.5-0.7,2.2c-1.2,3.6-2.5,7-4,10.2c-0.2,0.5-0.4,1-0.6,1.5c-1.8,3.8-3.7,7.4-5.9,10.7
			c-0.2,0.3-0.4,0.6-0.6,0.9c-1.9,2.8-3.9,5.4-6,7.9c-0.7,0.8-1.5,1.6-2.2,2.4c-1.8,1.9-3.6,3.7-5.5,5.4c-0.8,0.7-1.6,1.4-2.4,2
			c-2.7,2.2-5.5,4.2-8.5,5.9l107.9-62.7c3-1.7,5.8-3.7,8.5-5.9c0.8-0.6,1.6-1.4,2.4-2c1.9-1.7,3.8-3.5,5.5-5.4
			c0.7-0.8,1.5-1.6,2.2-2.4c2.1-2.5,4.1-5.1,6-7.9c0.2-0.3,0.4-0.6,0.6-0.9c0-0.1,0.1-0.1,0.1-0.2c2-3.1,3.9-6.5,5.6-10
			c0.1-0.2,0.1-0.3,0.2-0.5c0.2-0.5,0.4-1,0.6-1.4c1-2.1,1.9-4.3,2.8-6.5c0.4-1.2,0.8-2.5,1.2-3.7c0.2-0.7,0.5-1.4,0.7-2.2
			c0.2-0.7,0.4-1.3,0.6-1.9c0.7-2.4,1.4-5,2-7.5c0.2-0.9,0.4-1.9,0.6-2.8c0.1-0.6,0.2-1.1,0.3-1.7c0.2-0.9,0.4-1.7,0.5-2.6
			c0.4-2.3,0.8-4.7,1.1-7.1c0.2-1.3,0.3-2.7,0.4-4c0-0.5,0.1-0.9,0.1-1.4c0.1-0.6,0.1-1.1,0.2-1.6c0.2-2.3,0.3-4.6,0.4-7
			c0.1-2.3,0.2-4.7,0.2-7.1c0-0.1,0-0.3,0-0.4C942.4,767.8,942.3,765.6,942.3,763.4z"/>
		<path class="st0" d="M789,493.8c-0.1-3.6-0.3-7.2-0.5-10.9c-0.1-1.6-0.3-3.2-0.4-4.9c-0.1-0.7-0.1-1.4-0.2-2.2
			c-0.1-1.3-0.2-2.6-0.3-3.9c-0.4-3.7-0.8-7.3-1.2-11c-0.5-3.7-1-7.5-1.6-11.3c0-0.1,0-0.1,0-0.2c0-0.1,0-0.2,0-0.2
			c-0.6-3.6-1.2-7.3-1.9-10.9c-0.7-3.9-1.5-7.8-2.4-11.7c-0.3-1.3-0.6-2.6-0.9-3.9c-0.2-0.8-0.4-1.6-0.6-2.4
			c-0.4-1.8-0.8-3.6-1.3-5.4c-1-4-2-7.9-3.1-11.9c-0.8-2.7-1.6-5.5-2.4-8.2c-0.2-0.6-0.3-1.2-0.5-1.8c-0.2-0.6-0.4-1.2-0.5-1.9
			c-1.2-3.9-2.4-7.7-3.7-11.6c-1.3-3.8-2.6-7.6-4-11.4c-0.2-0.6-0.4-1.2-0.7-1.7c-0.2-0.5-0.4-1-0.6-1.6c-0.9-2.6-1.9-5.1-2.9-7.6
			c-1.4-3.6-2.9-7.3-4.4-10.9c-1-2.4-2.1-4.8-3.1-7.2c-0.2-0.5-0.4-1-0.7-1.6c-0.3-0.6-0.5-1.3-0.8-1.9c-1.6-3.6-3.3-7.3-4.9-10.9
			c-1.8-3.9-3.7-7.8-5.7-11.7c-0.2-0.5-0.5-0.9-0.7-1.4c-0.3-0.7-0.7-1.3-1.1-2c-1.7-3.4-3.4-6.7-5.2-10c-2-3.7-4.1-7.2-6.1-10.9
			c-1.1-2-2.2-4.1-3.4-6.1c-0.5-0.9-1-1.8-1.5-2.6c-1.9-3.3-4.1-6.4-6.1-9.7c-2.9-4.8-5.8-9.5-8.9-14.2c-0.6-0.8-1-1.7-1.6-2.5
			c-4-6.1-8.3-12-12.5-17.8c-0.5-0.7-0.9-1.4-1.4-2c-0.1-0.1-0.1-0.2-0.2-0.3c-3.2-4.4-6.5-8.7-9.8-12.9c-2.6-3.2-5.1-6.4-7.8-9.6
			c-0.2-0.2-0.4-0.5-0.5-0.7c-0.1-0.1-0.2-0.3-0.3-0.4c-2.8-3.4-5.7-6.8-8.6-10.1c-2.8-3.2-5.7-6.4-8.6-9.6
			c-0.4-0.4-0.8-0.9-1.2-1.3c-0.5-0.5-0.9-1-1.4-1.5c-2.1-2.3-4.3-4.6-6.5-6.8c-3.1-3.2-6.2-6.2-9.4-9.3c-0.9-0.9-1.8-1.7-2.7-2.6
			c-0.7-0.7-1.5-1.4-2.2-2c-1.6-1.5-3.2-3-4.8-4.5c-3.3-2.9-6.6-5.8-9.9-8.6c-1.4-1.2-2.8-2.3-4.2-3.5c-0.8-0.6-1.5-1.2-2.2-1.8
			c-1.1-0.9-2.3-1.9-3.4-2.8c-3.2-2.5-6.5-5-9.8-7.4c-2.3-1.7-4.7-3.3-7-5c-0.5-0.3-0.9-0.7-1.4-1c-0.4-0.3-0.8-0.6-1.3-0.9
			c-3.1-2.1-6.3-4.2-9.4-6.2c-3.1-2-6.3-3.9-9.4-5.8c-0.7-0.4-1.5-0.9-2.2-1.3c-2.4-1.4-4.7-2.7-7.1-3.9c-3-1.7-6.1-3.2-9.1-4.7
			c-2-1-3.9-1.9-5.9-2.8c-0.5-0.2-0.9-0.4-1.4-0.7c-0.6-0.3-1.1-0.5-1.7-0.8c-3-1.3-5.9-2.6-8.9-3.8c-3-1.2-6-2.3-8.9-3.4
			c-0.5-0.2-1.1-0.3-1.6-0.5c-0.5-0.2-0.9-0.3-1.4-0.5c-2-0.7-4-1.4-6-1.9c-3.1-0.9-6.1-1.8-9.1-2.5c-1.5-0.4-3-0.7-4.5-1
			c-0.7-0.1-1.3-0.3-2-0.4c-0.9-0.2-1.9-0.5-2.9-0.6c-3.2-0.6-6.3-1.1-9.4-1.6c-2.1-0.3-4.1-0.4-6.1-0.6c-0.7-0.1-1.4-0.2-2.1-0.2
			c-0.6-0.1-1.3-0.2-1.9-0.2c-3.6-0.2-7.1-0.4-10.6-0.3c-1.5,0-3,0.2-4.5,0.2c-1.1,0-2.2,0.1-3.3,0.2c-1.2,0.1-2.3,0.1-3.5,0.2
			c-4.3,0.4-8.6,1-12.7,1.8c-0.1,0-0.3,0.1-0.4,0.1c-1.4,0.3-2.6,0.8-3.9,1.1c-3.9,0.9-7.7,1.8-11.4,3.1c-0.3,0.1-0.6,0.3-1,0.5
			c-6,2.2-11.7,4.8-17.1,7.9l-107.9,62.7c5.4-3.2,11.2-5.7,17.1-7.9c4-1.5,8.2-2.6,12.4-3.6c1.3-0.3,2.6-0.8,3.9-1.1
			c5.4-1.1,10.9-1.7,16.6-2.1c1.1-0.1,2.2-0.1,3.3-0.2c5.5-0.2,11.2-0.2,17,0.3c0.7,0.1,1.4,0.1,2.1,0.2c6,0.6,12.1,1.5,18.4,2.8
			c0.7,0.1,1.3,0.3,2,0.4c6.4,1.4,12.9,3.2,19.5,5.4c0.5,0.2,0.9,0.3,1.4,0.5c6.9,2.4,14,5.2,21.1,8.4c0.5,0.2,0.9,0.4,1.4,0.7
			c7.3,3.4,14.6,7.1,22,11.4c7.5,4.3,15,9.1,22.3,14.2c0.5,0.3,0.9,0.7,1.4,1c6.8,4.8,13.6,9.9,20.2,15.2c0.7,0.6,1.5,1.2,2.2,1.8
			c6.4,5.3,12.8,10.8,19,16.6c0.7,0.7,1.5,1.4,2.2,2c6.3,6,12.5,12.2,18.6,18.6c0.5,0.5,0.9,1,1.4,1.5c6.4,6.9,12.7,14,18.8,21.3
			c0.2,0.2,0.3,0.4,0.5,0.6c6.1,7.4,12.1,15,17.8,22.8c0.5,0.7,0.9,1.3,1.4,2c4.9,6.7,9.6,13.5,14.1,20.4c3.1,4.7,6,9.4,8.9,14.2
			c2.5,4.1,5.1,8.1,7.5,12.3c1.2,2,2.3,4.1,3.4,6.1c3.9,6.9,7.7,13.9,11.3,20.9c0.3,0.7,0.7,1.3,1,2c4.3,8.6,8.4,17.2,12.2,25.9
			c0.2,0.5,0.4,1,0.7,1.6c3.7,8.5,7.1,17.1,10.3,25.7c0.2,0.5,0.4,1,0.6,1.6c3.2,8.8,6.2,17.7,8.9,26.6c0.2,0.6,0.3,1.2,0.5,1.8
			c2.5,8.5,4.8,17,6.8,25.6c0.2,0.8,0.4,1.6,0.6,2.4c2,8.9,3.8,17.7,5.2,26.5c0,0.1,0,0.2,0,0.2c1.4,8.8,2.4,17.6,3.2,26.4
			c0.1,0.7,0.1,1.4,0.2,2.1c0.7,8.7,1.1,17.3,1,25.9c0,3,0,6.1-0.1,9L789,513c0.1-2.2,0.1-4.5,0.1-6.7c0-0.8,0-1.6,0-2.3
			C789.1,500.6,789.1,497.2,789,493.8z"/>
	</g>
	<path class="st1" d="M688.6,579.9c-2.6-1.5-5.3-2.9-7.8-4.3c0.1-3,0.1-6,0.1-9C681.3,424.8,582,252.3,459,181.3
		c-112.5-65-205.9-22.3-221.1,94.3c-86.8-44.5-155.9-1.3-156.2,100.2C81.3,479.5,153,605.3,242.4,659.3l186.9,107.8L293,532.9
		c-10.6-17.7-23.7-32.5-37.7-42.8c-6.7-5.4-12.9-9.7-18.9-13.2c-5.9-3.4-11.7-6-17.4-7.9c-11.9-6.4-19.9-17.1-21.5-28.1
		c-1.2-6.7,0.1-12.7,3.6-16.8c2.8-3.3,6.8-5.2,11.3-5.2l5.1,0.8c9.2,3,17.9,7,26.5,12c8.5,4.9,17,10.8,25.3,17.6
		c17.3,12.8,34,30.7,48.1,51.9l2.4,2.4l152.5,261.9l8.7,20.4l6.6,14.8l207.8,119.9c76.9,39.8,138.3,1.7,138.6-88.3
		C834.2,739.5,769.1,626.4,688.6,579.9z M658.8,817.5c-3.3,0-6.7-1-10-2.9l-114.6-66.1c-10.1-5.8-17.7-19-17.7-30.7
		c0-10.1,6.4-17.1,15.4-17.1c3.3,0,6.7,1,10.1,2.9l114.6,66.1c10,5.8,17.7,19,17.7,30.3C674.3,812,666.3,817.5,658.8,817.5z
		 M659.3,686.2c-3.3,0-6.7-1-10.1-2.9l-222-128.2c-10.1-5.8-17.7-18.8-17.7-30.3c0-12.1,7.9-17.6,15.3-17.6c3.3,0,6.8,1,10.2,3
		l222,128.2c10.1,5.8,17.7,19,17.7,30.7C674.7,679.2,668.3,686.2,659.3,686.2z"/>
</g>
</svg>
