<?xml version="1.0" encoding="utf-8"?>
<!-- Generator: Adobe Illustrator 21.0.0, SVG Export Plug-In . SVG Version: 6.00 Build 0)  -->
<svg version="1.1" id="图层_1" xmlns="http://www.w3.org/2000/svg" xmlns:xlink="http://www.w3.org/1999/xlink" x="0px" y="0px"
	 viewBox="0 0 1024 1024" style="enable-background:new 0 0 1024 1024;" xml:space="preserve">
<style type="text/css">
	.st0{fill:#FFFFFF;}
	.st1{fill:#C1D4FF;}
</style>
<g>
	<g>
		<path class="st0" d="M147.8,287.6c0.5-0.1,0.9-0.2,1.4-0.3c3.7-0.8,7.5-1.4,11.4-1.8c0.4,0,0.8-0.1,1.2-0.1
			c4.1-0.3,8.3-0.4,12.6-0.2c0.2,0,0.4,0,0.6,0c4.5,0.2,9.1,0.8,13.8,1.6c0.2,0,0.4,0.1,0.6,0.1c4.6,0.8,9.2,1.9,14,3.3
			c0.4,0.1,0.8,0.3,1.2,0.4c4.7,1.4,9.5,3.1,14.3,5.1c0.3,0.1,0.6,0.3,0.9,0.4c5,2.1,10,4.4,15.1,7.1l102-60.3
			c-2.4-1.3-4.8-2.5-7.2-3.6c-2.7-1.3-5.3-2.4-7.9-3.5c-0.3-0.1-0.6-0.3-0.9-0.4c-0.1-0.1-0.3-0.1-0.4-0.2c-2.8-1.1-5.6-2.2-8.4-3.1
			c-1.9-0.6-3.7-1.2-5.5-1.7c-0.4-0.1-0.8-0.3-1.2-0.4c-0.3-0.1-0.6-0.2-0.9-0.3c-2.5-0.7-4.9-1.3-7.3-1.9c-1.9-0.4-3.9-0.8-5.8-1.1
			c-0.2,0-0.4-0.1-0.6-0.1c-0.1,0-0.3-0.1-0.4-0.1c-2.2-0.4-4.4-0.7-6.6-0.9c-2.1-0.2-4.3-0.4-6.4-0.5c-0.1,0-0.3,0-0.4,0
			c-0.2,0-0.4,0-0.6,0c-1.8-0.1-3.5-0.1-5.2-0.1c-2,0-4,0.1-6,0.2c-0.5,0-0.9,0.1-1.4,0.1c-0.4,0-0.8,0.1-1.2,0.1
			c-1.1,0.1-2.3,0.2-3.4,0.3c-2,0.3-3.9,0.6-5.8,0.9c-0.8,0.1-1.5,0.4-2.2,0.5c-0.5,0.1-0.9,0.2-1.4,0.3c-0.7,0.2-1.5,0.3-2.2,0.5
			c-1.9,0.5-3.8,1.1-5.7,1.8c-0.9,0.3-1.7,0.7-2.6,1c-0.5,0.2-0.9,0.4-1.4,0.5c-0.6,0.2-1.2,0.4-1.8,0.7c-2,0.9-3.9,1.8-5.8,2.8
			c-1,0.5-1.9,1.1-2.9,1.6l-102,60.3c3.3-2,6.9-3.7,10.5-5.1c0.5-0.2,0.9-0.4,1.4-0.5C140.7,289.6,144.2,288.5,147.8,287.6z"/>
		<path class="st0" d="M942.2,805.4c-0.1-1.4-0.2-2.8-0.3-4.2c-0.1-1-0.1-2-0.2-3.1c-0.1-1.1-0.1-2.2-0.3-3.4
			c-0.3-3.3-0.7-6.6-1.2-9.9c-0.1-0.9-0.3-1.9-0.5-2.8c-0.1-0.8-0.2-1.5-0.4-2.3c-0.2-1.4-0.4-2.8-0.7-4.1c-0.5-2.9-1.1-5.8-1.7-8.7
			c-0.3-1.2-0.6-2.5-0.8-3.7c-0.1-0.6-0.3-1.3-0.4-1.9c-0.2-1-0.4-2-0.7-3c-0.7-2.7-1.4-5.4-2.1-8.2c-0.6-2.1-1.2-4.1-1.8-6.2
			c-0.1-0.3-0.2-0.7-0.3-1c-0.1-0.3-0.2-0.6-0.3-0.9c-0.8-2.6-1.6-5.3-2.5-7.9c-0.9-2.6-1.8-5.2-2.7-7.9c-0.2-0.4-0.3-0.9-0.5-1.3
			c-0.1-0.4-0.3-0.8-0.4-1.2c-0.6-1.7-1.3-3.5-1.9-5.2c-1-2.5-2-5.1-3-7.6c-0.6-1.5-1.2-2.9-1.9-4.4c-0.2-0.4-0.4-0.9-0.6-1.3
			c-0.2-0.6-0.5-1.2-0.7-1.8c-1.1-2.4-2.2-4.9-3.3-7.3c-1.1-2.4-2.2-4.7-3.4-7c-0.2-0.4-0.4-0.8-0.6-1.3c-0.2-0.4-0.4-0.7-0.5-1.1
			c-0.8-1.5-1.5-3.1-2.3-4.6c-1.1-2.2-2.3-4.4-3.5-6.6c-1.1-2-2.2-4-3.3-5.9c-0.1-0.1-0.1-0.2-0.2-0.3c-0.1-0.1-0.1-0.2-0.2-0.3
			c-1.2-2.1-2.5-4.3-3.7-6.4c-1.3-2.1-2.5-4.2-3.8-6.3c-0.8-1.2-1.5-2.4-2.3-3.6c-0.3-0.4-0.5-0.8-0.8-1.2c-0.4-0.6-0.8-1.2-1.2-1.9
			c-1.5-2.2-2.9-4.4-4.4-6.6c-1.7-2.5-3.4-4.9-5.2-7.3c-0.1-0.2-0.2-0.3-0.4-0.5c-0.1-0.1-0.1-0.2-0.2-0.3c-2.5-3.4-5-6.8-7.6-10.1
			c-0.6-0.8-1.3-1.5-1.9-2.2c-3.4-4.2-6.8-8.3-10.4-12.3c-1.3-1.5-2.6-3.1-4-4.6c-4.9-5.4-10-10.6-15.1-15.5
			c-0.2-0.1-0.3-0.3-0.4-0.5c-2.5-2.4-5.2-4.6-7.8-6.9c-1.9-1.7-3.8-3.5-5.8-5.1c-0.1-0.1-0.2-0.2-0.4-0.3
			c-4.2-3.4-8.4-6.7-12.7-9.7c-0.2-0.2-0.5-0.3-0.7-0.5c-0.9-0.7-1.9-1.2-2.8-1.9c-2.7-1.9-5.4-3.7-8.1-5.4c-1.6-1-3.2-2-4.8-2.9
			c-1.4-0.9-2.9-1.7-4.4-2.5c-1.2-0.6-2.3-1.3-3.5-1.8l-102,60.3c2.7,1.4,5.4,2.8,7.9,4.3c4.4,2.6,8.7,5.4,12.9,8.3
			c0.9,0.6,1.9,1.2,2.8,1.9c4.7,3.3,9.3,6.8,13.8,10.6c2,1.6,3.9,3.4,5.8,5.1c2.7,2.4,5.5,4.8,8.2,7.3c5.2,4.9,10.2,10.1,15.1,15.5
			c1.4,1.5,2.7,3.1,4,4.6c3.5,4,7,8.1,10.4,12.3c3.3,4.1,6.6,8.3,9.7,12.6c0.1,0.2,0.2,0.3,0.4,0.5c3.7,5.2,7.3,10.4,10.8,15.8
			c0.3,0.4,0.5,0.8,0.8,1.2c3.5,5.4,6.8,11,10,16.6c0.1,0.1,0.1,0.2,0.2,0.3c3.2,5.6,6.2,11.4,9.1,17.1c0.2,0.3,0.4,0.7,0.5,1
			c2.8,5.7,5.5,11.6,8,17.4c0.2,0.4,0.4,0.9,0.6,1.3c2.4,5.7,4.7,11.5,6.8,17.2c0.1,0.4,0.3,0.8,0.4,1.1c2.2,6,4.1,12,5.9,18.1
			c0.1,0.3,0.2,0.7,0.3,1c1.7,5.8,3.2,11.5,4.5,17.3c0.1,0.6,0.3,1.3,0.4,1.9c1.2,5.5,2.3,11.1,3.2,16.6c0.1,0.7,0.2,1.5,0.4,2.2
			c0.8,5.4,1.4,10.8,1.9,16.1c0.1,1,0.2,2,0.2,3.1c0.4,5.6,0.7,11.2,0.7,16.6c0,5.6-0.3,10.9-0.8,16c-0.2,1.9-0.5,3.8-0.7,5.7
			c-0.4,3.2-0.8,6.5-1.4,9.6c-0.4,2-0.8,3.9-1.3,5.8c-0.6,2.8-1.3,5.6-2.1,8.2c-0.5,1.9-1.2,3.7-1.8,5.4c-0.9,2.5-1.8,4.9-2.8,7.3
			c-0.7,1.7-1.5,3.3-2.2,4.9c-1.1,2.2-2.3,4.4-3.5,6.5c-0.9,1.5-1.7,2.9-2.6,4.3c-1.4,2-2.8,3.9-4.3,5.8c-0.9,1.2-1.9,2.4-2.9,3.5
			c-1.7,1.9-3.6,3.7-5.4,5.4c-0.9,0.8-1.8,1.8-2.7,2.5c-2.9,2.4-5.9,4.5-9.1,6.4l102-60.3c3.2-1.9,6.2-4,9.1-6.4
			c0.9-0.8,1.8-1.7,2.7-2.5c1.9-1.7,3.7-3.4,5.4-5.4c1-1.1,1.9-2.4,2.9-3.5c1.5-1.9,2.9-3.8,4.3-5.8c0.9-1.4,1.8-2.8,2.6-4.3
			c1.2-2.1,2.4-4.2,3.5-6.5c0.8-1.6,1.5-3.2,2.2-4.9c1-2.3,1.9-4.8,2.8-7.3c0.6-1.8,1.2-3.6,1.8-5.4c0.8-2.6,1.4-5.4,2.1-8.2
			c0.4-1.9,0.9-3.8,1.3-5.8c0.6-3.1,1-6.3,1.4-9.6c0.2-1.9,0.5-3.7,0.7-5.7c0-0.5,0.1-0.9,0.2-1.3c0.4-4.7,0.6-9.6,0.6-14.7
			c0-0.1,0-0.3,0-0.4C942.6,813.4,942.5,809.4,942.2,805.4z"/>
		<path class="st0" d="M786.6,524.3c-0.1-2.1-0.3-4.2-0.5-6.4c-0.1-1.6-0.2-3.1-0.4-4.6c-0.2-1.7-0.2-3.5-0.4-5.2
			c-0.5-5-1.1-10.1-1.8-15.1c-0.2-1.4-0.5-2.8-0.7-4.2c-0.2-1.1-0.4-2.3-0.5-3.4c-0.3-2.2-0.6-4.3-1-6.5c-0.8-4.4-1.6-8.9-2.6-13.3
			c-0.4-1.8-0.8-3.7-1.2-5.5c-0.2-1-0.4-2-0.7-2.9c-0.4-1.5-0.7-3.1-1-4.6c-1-4.1-2.1-8.3-3.2-12.5c-0.8-3.1-1.7-6.2-2.6-9.3
			c-0.2-0.5-0.3-1.1-0.5-1.6c-0.2-0.5-0.3-1-0.4-1.5c-1.2-4-2.5-8.1-3.8-12.1c-1.3-4-2.7-8-4.1-12c-0.2-0.6-0.5-1.3-0.7-1.9
			c-0.2-0.6-0.4-1.2-0.7-1.8c-1-2.7-2-5.4-3-8.1c-1.5-3.9-3-7.8-4.6-11.6c-0.9-2.2-1.8-4.4-2.8-6.5c-0.3-0.7-0.6-1.3-0.8-2
			c-0.4-0.9-0.8-1.9-1.2-2.8c-1.6-3.7-3.3-7.4-5-11.2c-1.7-3.6-3.4-7.2-5.1-10.7c-0.3-0.6-0.6-1.2-0.9-1.9c-0.2-0.5-0.5-1-0.8-1.5
			c-1.2-2.4-2.4-4.8-3.6-7.2c-1.7-3.4-3.5-6.7-5.3-10.1c-1.6-3-3.3-5.9-4.9-8.9c-0.1-0.2-0.2-0.4-0.3-0.6c-0.1-0.2-0.2-0.4-0.3-0.5
			c-1.9-3.3-3.7-6.5-5.7-9.7c-1.9-3.2-3.9-6.4-5.9-9.6c-1.1-1.8-2.3-3.6-3.4-5.4c-0.4-0.6-0.8-1.3-1.2-1.9c-0.6-1-1.2-2-1.9-2.9
			c-2.2-3.4-4.5-6.8-6.8-10.1c-2.5-3.7-5.1-7.3-7.7-10.9c-0.2-0.3-0.4-0.6-0.6-0.9c-0.1-0.2-0.3-0.4-0.4-0.5
			c-3.8-5.2-7.6-10.3-11.5-15.3c-0.9-1.2-1.9-2.2-2.9-3.4c-5.1-6.5-10.4-12.7-15.8-18.8c-2-2.3-4-4.7-6.1-7
			c-7.5-8.2-15.2-16.1-23.1-23.6c-0.2-0.2-0.4-0.5-0.7-0.7c-3.8-3.6-7.8-6.9-11.7-10.3c-3-2.7-6-5.5-9.1-8c-0.2-0.2-0.4-0.3-0.6-0.5
			c-6.4-5.2-12.8-10.2-19.3-14.9c-0.4-0.3-0.8-0.5-1.1-0.8c-1.4-1-2.9-1.9-4.3-2.9c-4.1-2.8-8.2-5.7-12.4-8.3
			c-2.4-1.5-4.9-3-7.3-4.4c-2.9-1.7-5.8-3.3-8.6-4.9c-4.7-2.5-9.3-4.9-13.9-7.1c-0.2-0.1-0.3-0.1-0.4-0.2c-0.3-0.1-0.6-0.3-0.9-0.4
			c-3.7-1.7-7.4-3.4-11.1-4.9c-3.5-1.4-7-2.7-10.4-3.9c-0.2,0-0.3-0.1-0.4-0.2c-0.1,0-0.2-0.1-0.3-0.1c-3.5-1.2-6.9-2.3-10.4-3.3
			c-3.3-0.9-6.6-1.8-9.9-2.5c-0.3-0.1-0.5-0.1-0.8-0.2c-0.3-0.1-0.6-0.1-1-0.2c-2.5-0.5-5-1.1-7.4-1.5c-3-0.5-6-0.9-8.9-1.3
			c-1-0.1-2-0.2-3-0.3c-0.6-0.1-1.2-0.1-1.8-0.2c-1.3-0.1-2.5-0.3-3.8-0.3c-2.8-0.2-5.6-0.2-8.4-0.2c-2.1,0-4.1,0.1-6.1,0.2
			c-0.3,0-0.7,0-1,0c-0.3,0-0.7,0-1,0c-2.7,0.2-5.4,0.4-8,0.8c-2.7,0.3-5.3,0.8-7.9,1.3c-0.4,0.1-0.7,0.2-1.1,0.2
			c-0.4,0.1-0.7,0.2-1.1,0.3c-1.9,0.4-3.8,0.8-5.6,1.3c-2.6,0.7-5.2,1.5-7.8,2.4c-0.9,0.3-1.7,0.7-2.5,1c-0.6,0.2-1.2,0.4-1.7,0.7
			c-1.1,0.4-2.3,0.9-3.4,1.3c-2.7,1.2-5.3,2.4-7.9,3.8c-1.3,0.7-2.6,1.4-3.9,2.2h0l-102,60.3c4.9-2.9,10-5.3,15.2-7.4
			c0.6-0.2,1.2-0.5,1.7-0.7c5.1-1.9,10.4-3.5,15.9-4.7c0.4-0.1,0.7-0.2,1.1-0.3c5.8-1.2,11.8-2,17.9-2.3c0.3,0,0.7,0,1,0
			c5.9-0.3,12-0.2,18.3,0.4c0.6,0,1.2,0.1,1.8,0.2c6.3,0.6,12.8,1.6,19.3,3c0.3,0.1,0.6,0.1,1,0.2c7,1.5,14.1,3.5,21.3,6.1
			c0.1,0,0.3,0.1,0.4,0.2c7.1,2.5,14.3,5.4,21.5,8.8c0.3,0.1,0.6,0.3,0.9,0.4c7.6,3.5,15.2,7.6,23,12.1c6.6,3.9,13.2,8.3,19.7,12.7
			c1.4,1,2.9,1.9,4.3,2.9c7.1,5.1,14.1,10.4,21,16.1c3.1,2.5,6,5.3,9.1,8c4.1,3.6,8.3,7.1,12.3,11c7.9,7.5,15.6,15.4,23.1,23.6
			c2.1,2.3,4,4.7,6.1,7c5.4,6.1,10.7,12.3,15.8,18.8c5,6.3,10,12.7,14.8,19.2c0.2,0.3,0.4,0.6,0.6,0.9c5.6,7.8,11.1,15.9,16.4,24
			c0.4,0.6,0.8,1.2,1.2,1.9c5.3,8.3,10.4,16.7,15.3,25.3c0.1,0.2,0.2,0.3,0.3,0.5c4.9,8.6,9.5,17.3,13.9,26.2c0.2,0.5,0.5,1,0.7,1.5
			c4.3,8.8,8.4,17.7,12.3,26.6c0.3,0.7,0.6,1.3,0.8,2c3.7,8.7,7.2,17.5,10.4,26.3c0.2,0.6,0.4,1.2,0.6,1.7c3.3,9.1,6.3,18.3,9,27.5
			c0.2,0.5,0.3,1.1,0.5,1.6c2.6,8.8,4.9,17.6,6.9,26.4c0.2,1,0.4,2,0.7,3c1.9,8.5,3.5,16.9,4.8,25.3c0.2,1.1,0.4,2.3,0.5,3.4
			c1.2,8.2,2.2,16.4,2.9,24.5c0.1,1.6,0.2,3.1,0.4,4.7c0.6,8.5,1,17.1,1,25.4c0,3.1-0.1,6.2-0.2,9.3l102-60.3
			c0.1-3.1,0.2-6.2,0.2-9.3c0-0.2,0-0.4,0-0.6C787.1,536.7,786.9,530.5,786.6,524.3z"/>
	</g>
	<g>
		<g>
			<path class="st1" d="M706.6,611.5c-2.6-1.5-5.3-3-8.1-4.3c0.1-3.1,0.2-6.1,0.2-9.3c0.4-146.3-101.9-324.1-228.6-397.3
				c-116-67-212.2-23-227.8,97.3C152.9,252,81.7,296.6,81.4,401.2C81.1,508,154.9,637.7,246.9,693.3l466.6,269.4
				c79.3,41.1,142.6,1.9,142.9-90.9C856.7,776.1,789.6,659.5,706.6,611.5z M468.9,720.6c-58.5-32.5-108-102.6-124.8-170.8
				l-18.3,24.9l-20.7-24.7l32.8-48.2l71.6,39.8l-0.1,26.6l-33.1-18.4c12,58.8,52.2,108.6,92.5,131c54,30,93.9,5.5,96-53l35.7,19.9
				C600.5,728.2,541.5,760.9,468.9,720.6z M600,629.3l-71.6-39.8l0.1-26.5l33.2,18.4c-12.1-59-52.3-108.7-92.6-131.1
				c-54-30-93.9-5.7-95.9,52.9l-35.9-19.9c0.2-80.5,59.2-113.1,131.8-72.8c58.5,32.5,108,102.5,124.8,170.6l18.3-24.9l20.7,24.8
				L600,629.3z"/>
		</g>
	</g>
</g>
</svg>
