<?xml version="1.0" encoding="utf-8"?>
<!-- Generator: Adobe Illustrator 21.0.0, SVG Export Plug-In . SVG Version: 6.00 Build 0)  -->
<svg version="1.1" id="图层_1" xmlns="http://www.w3.org/2000/svg" xmlns:xlink="http://www.w3.org/1999/xlink" x="0px" y="0px"
	 viewBox="0 0 1024 1024" style="enable-background:new 0 0 1024 1024;" xml:space="preserve">
<style type="text/css">
	.st0{opacity:0.7;}
	.st1{fill:#FFFFFF;}
</style>
<g>
	<g class="st0">
		<g>
			<path class="st1" d="M941.2,442.7c-0.2,1.1-0.3,2.1-0.6,3.2c-0.8,3.9-1.8,7.8-3.2,11.6c-0.1,0.1-0.1,0.3-0.2,0.4
				c-1.4,3.7-3,7.4-4.9,11.1c-0.5,1-1.1,2-1.6,3.1c-1.9,3.5-4.1,7-6.5,10.5c-0.3,0.4-0.5,0.9-0.8,1.3c-3,4.1-6.3,8.2-9.9,12.2
				c-0.7,0.8-1.5,1.6-2.3,2.5c-4.2,4.5-8.7,8.8-13.7,13.1c-1.1,1-2.3,2-3.5,2.9c-2.2,1.8-4.5,3.7-6.9,5.5c-1.4,1.1-2.9,2.2-4.4,3.3
				c-2.5,1.8-5.1,3.6-7.7,5.4c-1.3,0.9-2.6,1.8-4,2.7c-7.1,4.6-14.6,9-22.5,13.3c-0.8,0.4-1.6,0.9-2.4,1.3
				c-8.1,4.3-16.7,8.4-25.7,12.4c-0.9,0.4-1.8,0.8-2.7,1.2c-5.5,2.4-11.2,4.7-17,7c-1.1,0.4-2.2,0.8-3.3,1.2
				c-4.8,1.8-9.7,3.7-14.8,5.4c-2.1,0.7-4.1,1.4-6.2,2.1c-4.3,1.4-8.6,2.8-13,4.2c-2.2,0.7-4.5,1.4-6.8,2.1
				c-4.8,1.4-9.6,2.8-14.5,4.1c-1.7,0.5-3.3,0.9-5,1.4c-12.9,3.4-26.3,6.6-40,9.4c-0.6,0.1-1.2,0.2-1.8,0.4c-13.3,2.7-27,5.1-41,7.2
				c-1.2,0.2-2.5,0.4-3.7,0.5c-17.7,2.6-36,4.7-54.7,6.3c-0.9,0.1-1.8,0.1-2.6,0.2c-15.1,1.2-30.5,2.1-46.1,2.7c-2,0.1-4,0.1-6,0.2
				c-9.7,0.3-19.5,0.5-29.4,0.5c-5.2,0-10.4-0.1-15.6-0.2c-12.8-0.2-25.4-0.6-37.9-1.3c-1.8-0.1-3.6-0.2-5.4-0.3
				c-12.1-0.7-23.9-1.6-35.7-2.8c-1.8-0.2-3.6-0.4-5.4-0.5c-11.6-1.2-23.1-2.6-34.3-4.2c-1.7-0.2-3.4-0.5-5.1-0.7
				c-11.6-1.7-22.9-3.6-34-5.7c-1.5-0.3-3-0.6-4.5-0.9c-11.7-2.3-23.1-4.8-34.3-7.5c-1.4-0.3-2.8-0.7-4.1-1
				c-12.4-3.1-24.4-6.5-36-10.1c-1.1-0.3-2.2-0.6-3.2-1c-6.9-2.2-13.6-4.4-20.1-6.8c-1.4-0.5-2.8-1-4.2-1.6
				c-5.2-1.9-10.4-3.9-15.4-6c-2.1-0.8-4.1-1.7-6.1-2.5c-2.6-1.1-5.1-2.2-7.5-3.3c-2.4-1-4.7-2.1-7-3.2c-2.4-1.1-4.8-2.3-7.2-3.5
				c-2.2-1.1-4.5-2.2-6.6-3.3c-2.3-1.2-4.6-2.4-6.8-3.6c-2.1-1.1-4.2-2.3-6.3-3.4c-2.2-1.2-4.3-2.5-6.4-3.8c-2-1.2-3.9-2.3-5.8-3.5
				c-2.1-1.3-4.1-2.6-6.1-3.9c-1.8-1.2-3.7-2.4-5.4-3.6c-1.9-1.4-3.8-2.7-5.6-4.1c-1.7-1.2-3.4-2.5-5-3.7c-1.8-1.4-3.5-2.8-5.2-4.2
				c-1.5-1.3-3.1-2.5-4.6-3.8c-1.6-1.4-3.2-2.9-4.7-4.4c-1.4-1.3-2.8-2.6-4.1-3.9c-1.5-1.5-2.9-3-4.3-4.5c-1.2-1.3-2.5-2.6-3.6-4
				c-1.3-1.5-2.6-3.1-3.8-4.7c-1.1-1.3-2.2-2.7-3.2-4c-1.2-1.6-2.2-3.2-3.3-4.9c-0.9-1.3-1.8-2.7-2.7-4.1c-1-1.7-1.9-3.3-2.8-5
				c-0.7-1.4-1.5-2.7-2.2-4c-0.8-1.7-1.5-3.5-2.2-5.3c-0.5-1.3-1.2-2.6-1.6-4c-0.7-1.9-1.2-3.7-1.7-5.6c-0.4-1.3-0.8-2.5-1.1-3.8
				c-0.5-2.1-0.8-4.2-1.2-6.3c-0.2-1.1-0.4-2.1-0.6-3.2c-0.4-3.2-0.6-6.4-0.6-9.7v145.9c0,3.2,0.2,6.5,0.6,9.7
				c0.1,1.1,0.4,2.1,0.6,3.2c0.3,2.1,0.7,4.3,1.2,6.3c0.3,1.3,0.8,2.5,1.1,3.8c0.5,1.9,1,3.7,1.7,5.6c0.5,1.3,1.1,2.6,1.6,4
				c0.7,1.8,1.4,3.5,2.2,5.3c0.7,1.4,1.4,2.7,2.2,4c0.9,1.7,1.8,3.4,2.8,5c0.8,1.3,1.8,2.7,2.7,4c1.1,1.6,2.1,3.3,3.3,4.9
				c1,1.3,2.1,2.7,3.1,4c1.2,1.6,2.5,3.2,3.8,4.7c1.2,1.3,2.4,2.6,3.6,3.9c1.4,1.5,2.8,3.1,4.3,4.6c1.3,1.3,2.7,2.6,4.1,3.9
				c1.5,1.5,3.1,2.9,4.7,4.4c1.5,1.3,3,2.6,4.6,3.8c1.7,1.4,3.4,2.8,5.2,4.2c1.6,1.3,3.3,2.5,4.9,3.7c1.9,1.4,3.7,2.8,5.7,4.1
				c1.7,1.2,3.5,2.4,5.3,3.6c2,1.3,4,2.7,6.1,4c1.9,1.2,3.8,2.3,5.8,3.5c2.2,1.3,4.3,2.6,6.5,3.8c2,1.1,4.1,2.3,6.2,3.4
				c2.3,1.2,4.6,2.5,6.9,3.7c2.1,1.1,4.3,2.2,6.6,3.3c2.4,1.2,4.8,2.3,7.3,3.5c2.3,1.1,4.6,2.1,6.9,3.1c2.5,1.1,5.1,2.2,7.6,3.3
				c1,0.4,2,0.9,3,1.3c1,0.4,2,0.8,3,1.2c5,2.1,10.2,4,15.5,6c1.4,0.5,2.8,1,4.2,1.6c6.6,2.4,13.3,4.6,20.2,6.8
				c0.5,0.2,0.9,0.3,1.4,0.5c0.6,0.2,1.2,0.3,1.7,0.5c11.6,3.6,23.6,7,36.1,10.1c0.7,0.2,1.3,0.4,1.9,0.5c0.7,0.2,1.5,0.3,2.2,0.5
				c11.1,2.7,22.6,5.2,34.3,7.5c0.8,0.2,1.6,0.4,2.4,0.5c0.7,0.1,1.5,0.2,2.2,0.4c11.1,2.1,22.4,4,34,5.7c0.9,0.1,1.8,0.3,2.7,0.4
				c0.8,0.1,1.6,0.2,2.4,0.3c11.2,1.6,22.7,3,34.3,4.2c0.9,0.1,1.8,0.2,2.7,0.3c0.9,0.1,1.8,0.1,2.7,0.2c11.7,1.1,23.6,2.1,35.7,2.8
				c0.9,0.1,1.7,0.1,2.5,0.2c0.9,0.1,1.9,0,2.9,0.1c12.5,0.7,25.1,1.1,37.9,1.3c0.8,0,1.6,0.1,2.5,0.1c4.4,0,8.7,0.1,13.1,0.1
				c9.9,0,19.7-0.2,29.4-0.5c1.2,0,2.4,0,3.6-0.1c0.8,0,1.6-0.1,2.3-0.1c15.6-0.5,31-1.4,46.1-2.7c0.6,0,1.2-0.1,1.8-0.1
				c0.3,0,0.6-0.1,0.9-0.1c18.7-1.6,36.9-3.7,54.7-6.3c0.6-0.1,1.3-0.1,1.9-0.2c0.6-0.1,1.2-0.2,1.8-0.3c14-2.1,27.7-4.5,41-7.2
				c0.6-0.1,1.2-0.2,1.8-0.3c13.8-2.8,27.1-6,40.1-9.4c0.3-0.1,0.6-0.1,0.9-0.2c1.4-0.4,2.7-0.8,4.1-1.2c4.9-1.3,9.8-2.7,14.6-4.2
				c2.2-0.7,4.5-1.4,6.7-2c4.4-1.4,8.8-2.8,13.1-4.2c2-0.7,4.1-1.4,6.1-2.1c5.1-1.8,10.1-3.6,14.9-5.5c1-0.4,2.1-0.8,3.1-1.2
				c5.8-2.3,11.5-4.6,17.1-7c0.4-0.2,0.8-0.3,1.2-0.5c0.5-0.2,0.9-0.5,1.4-0.7c9-4,17.6-8.1,25.7-12.4c0.8-0.4,1.5-0.8,2.3-1.3
				c8-4.3,15.5-8.7,22.6-13.3c0.3-0.2,0.7-0.4,1-0.6c1-0.7,2-1.4,3-2.1c2.6-1.8,5.2-3.6,7.8-5.4c1.5-1.1,2.9-2.2,4.4-3.3
				c2.4-1.8,4.7-3.7,6.9-5.5c0.8-0.7,1.7-1.3,2.5-2c0.3-0.3,0.6-0.6,0.9-0.9c5-4.3,9.5-8.7,13.7-13.1c0.3-0.4,0.8-0.7,1.1-1.1
				c0.4-0.5,0.7-0.9,1.1-1.4c3.6-4,7-8,9.9-12.2c0.1-0.1,0.1-0.2,0.2-0.3c0.2-0.3,0.4-0.7,0.6-1c2.4-3.5,4.6-7,6.5-10.5
				c0.3-0.5,0.7-1.1,1-1.6c0.2-0.5,0.4-1,0.6-1.4c1.9-3.7,3.6-7.4,4.9-11.1c0-0.1,0.1-0.2,0.2-0.4l0,0c1.4-3.8,2.4-7.7,3.2-11.6
				c0.1-0.4,0.3-0.9,0.4-1.3c0.1-0.6,0.1-1.3,0.2-1.9c0.5-3.3,0.9-6.6,1.1-9.9c0-0.6,0.2-1.2,0.2-1.8s0-1.2,0-1.8v-146
				c0,1.2-0.2,2.4-0.2,3.7C942.2,436.1,941.9,439.4,941.2,442.7z M941.2,624.9c-0.2,1.1-0.3,2.1-0.6,3.2c-0.8,3.9-1.8,7.7-3.2,11.6
				c-0.1,0.1-0.1,0.3-0.2,0.4c-1.4,3.7-3,7.4-4.9,11.1c-0.5,1-1.1,2-1.6,3.1c-1.9,3.5-4.1,7-6.5,10.5c-0.3,0.4-0.5,0.9-0.8,1.3
				c-3,4.1-6.3,8.2-9.9,12.2c-0.7,0.8-1.5,1.6-2.3,2.5c-4.2,4.5-8.7,8.8-13.7,13.1c-1.1,1-2.3,1.9-3.5,2.9c-2.2,1.8-4.5,3.7-6.9,5.5
				c-1.4,1.1-2.9,2.2-4.4,3.3c-2.5,1.8-5.1,3.6-7.7,5.4c-1.3,0.9-2.6,1.8-4,2.7c-7.1,4.6-14.6,9-22.5,13.3c-0.8,0.4-1.6,0.9-2.4,1.3
				c-8.1,4.3-16.7,8.4-25.7,12.4c-0.9,0.4-1.8,0.8-2.7,1.2c-5.5,2.4-11.2,4.7-17,7c-1.1,0.4-2.2,0.8-3.3,1.2
				c-4.8,1.8-9.7,3.6-14.8,5.4c-2.1,0.7-4.1,1.4-6.2,2.1c-4.3,1.4-8.6,2.8-13,4.2c-2.2,0.7-4.5,1.4-6.8,2.1
				c-4.8,1.4-9.6,2.8-14.5,4.1c-1.7,0.4-3.3,0.9-5,1.4c-12.9,3.4-26.3,6.6-40,9.4c-0.6,0.1-1.2,0.2-1.8,0.4c-13.3,2.7-27,5.1-41,7.2
				c-1.2,0.2-2.5,0.4-3.7,0.5c-17.7,2.6-36,4.7-54.7,6.3c-0.9,0.1-1.8,0.1-2.6,0.2c-15.1,1.2-30.5,2.1-46.1,2.7c-2,0.1-4,0.1-6,0.2
				c-9.7,0.3-19.5,0.5-29.4,0.5c-5.2,0-10.4-0.1-15.6-0.2c-12.8-0.2-25.4-0.6-37.9-1.3c-1.8-0.1-3.6-0.2-5.4-0.3
				c-12.1-0.7-23.9-1.6-35.7-2.8c-1.8-0.2-3.6-0.4-5.4-0.5c-11.6-1.2-23.1-2.6-34.3-4.2c-1.7-0.2-3.4-0.5-5.1-0.7
				c-11.6-1.7-22.9-3.6-34-5.7c-1.5-0.3-3-0.6-4.5-0.9c-11.7-2.3-23.1-4.8-34.3-7.5c-1.4-0.3-2.8-0.7-4.1-1
				c-12.4-3.1-24.4-6.5-36-10.1c-1.1-0.3-2.2-0.7-3.2-1c-6.9-2.2-13.6-4.4-20.1-6.8c-1.4-0.5-2.8-1-4.2-1.6
				c-5.2-1.9-10.4-3.9-15.4-6c-2.1-0.8-4.1-1.7-6.1-2.5c-2.6-1.1-5.1-2.2-7.5-3.3c-2.4-1-4.7-2.1-7-3.2c-2.4-1.1-4.8-2.3-7.2-3.5
				c-2.2-1.1-4.5-2.2-6.6-3.3c-2.3-1.2-4.6-2.4-6.8-3.6c-2.1-1.1-4.2-2.3-6.3-3.4c-2.2-1.2-4.3-2.5-6.4-3.8c-2-1.2-3.9-2.3-5.8-3.5
				c-2.1-1.3-4.1-2.6-6.1-3.9c-1.8-1.2-3.7-2.4-5.4-3.6c-1.9-1.3-3.8-2.7-5.6-4.1c-1.7-1.2-3.4-2.5-5-3.7c-1.8-1.4-3.5-2.8-5.2-4.2
				c-1.5-1.3-3.1-2.6-4.6-3.8c-1.6-1.4-3.2-2.9-4.7-4.4c-1.4-1.3-2.8-2.6-4.1-3.9c-1.5-1.5-2.9-3-4.3-4.5c-1.2-1.3-2.5-2.6-3.6-4
				c-1.3-1.6-2.6-3.1-3.8-4.7c-1.1-1.3-2.2-2.7-3.2-4c-1.2-1.6-2.2-3.2-3.3-4.9c-0.9-1.3-1.8-2.7-2.7-4c-1-1.7-1.9-3.3-2.8-5
				c-0.7-1.4-1.5-2.7-2.2-4.1c-0.8-1.7-1.5-3.5-2.2-5.3c-0.5-1.3-1.2-2.6-1.6-4c-0.7-1.8-1.2-3.7-1.7-5.6c-0.4-1.3-0.8-2.5-1.1-3.8
				c-0.5-2.1-0.8-4.2-1.2-6.3c-0.2-1.1-0.4-2.1-0.6-3.2c-0.4-3.2-0.6-6.4-0.6-9.7v145.9c0,3.2,0.2,6.5,0.6,9.7
				c0.1,1.1,0.4,2.1,0.6,3.2c0.3,2.1,0.7,4.2,1.2,6.3c0.3,1.3,0.8,2.5,1.1,3.8c0.5,1.9,1,3.7,1.7,5.6c0.5,1.3,1.1,2.7,1.6,4
				c0.7,1.8,1.4,3.5,2.2,5.3c0.7,1.4,1.4,2.7,2.2,4c0.9,1.7,1.8,3.4,2.8,5c0.8,1.4,1.8,2.7,2.7,4c1.1,1.6,2.1,3.3,3.3,4.9
				c1,1.3,2.1,2.7,3.1,4c1.2,1.6,2.5,3.2,3.8,4.7c1.2,1.3,2.4,2.6,3.6,3.9c1.4,1.5,2.8,3.1,4.3,4.5c1.3,1.3,2.7,2.6,4.1,3.9
				c1.5,1.5,3.1,2.9,4.7,4.4c1.5,1.3,3,2.6,4.6,3.8c1.7,1.4,3.4,2.8,5.2,4.3c1.6,1.2,3.3,2.5,4.9,3.7c1.9,1.4,3.7,2.8,5.7,4.1
				c1.7,1.2,3.5,2.4,5.3,3.6c2,1.3,4,2.7,6.1,4c1.9,1.2,3.8,2.3,5.8,3.5c2.2,1.3,4.3,2.6,6.5,3.8c2,1.1,4.1,2.3,6.2,3.4
				c2.3,1.2,4.6,2.5,6.9,3.7c2.1,1.1,4.3,2.2,6.6,3.3c2.4,1.2,4.8,2.3,7.3,3.5c2.3,1.1,4.6,2.1,6.9,3.1c2.5,1.1,5.1,2.2,7.6,3.3
				c1,0.4,2,0.9,3,1.3c1,0.4,2,0.8,3,1.2c5,2,10.2,4,15.5,6c1.4,0.5,2.8,1,4.2,1.6c6.6,2.4,13.3,4.6,20.2,6.8
				c0.5,0.2,0.9,0.3,1.4,0.5c0.6,0.2,1.2,0.3,1.7,0.5c11.6,3.6,23.6,7,36.1,10.1c0.7,0.2,1.3,0.4,1.9,0.5c0.7,0.2,1.5,0.3,2.2,0.5
				c11.1,2.7,22.6,5.2,34.3,7.5c0.8,0.2,1.6,0.4,2.4,0.5c0.7,0.1,1.5,0.2,2.2,0.4c11.1,2.1,22.4,4,34,5.7c0.9,0.1,1.8,0.3,2.7,0.4
				c0.8,0.1,1.6,0.2,2.4,0.3c11.2,1.6,22.7,3,34.3,4.2c0.9,0.1,1.8,0.2,2.7,0.3c0.9,0.1,1.8,0.1,2.7,0.2c11.7,1.1,23.6,2.1,35.7,2.8
				c0.9,0,1.7,0.1,2.5,0.2c0.9,0,1.9,0,2.9,0.1c12.5,0.7,25.1,1.1,37.9,1.3c0.8,0,1.6,0.1,2.5,0.1c4.4,0.1,8.7,0.1,13.1,0.1
				c9.9,0,19.7-0.2,29.4-0.5c1.2,0,2.4,0,3.6-0.1c0.8,0,1.6-0.1,2.3-0.1c15.6-0.5,31-1.4,46.1-2.7c0.6,0,1.2,0,1.8-0.1
				c0.3,0,0.6-0.1,0.9-0.1c18.7-1.6,36.9-3.7,54.7-6.3c0.6-0.1,1.3-0.1,1.9-0.2c0.6-0.1,1.2-0.2,1.8-0.3c14-2.1,27.7-4.5,41-7.2
				c0.6-0.1,1.2-0.2,1.8-0.3c13.8-2.8,27.1-6,40.1-9.4c0.3-0.1,0.6-0.1,0.9-0.2c1.4-0.4,2.7-0.8,4.1-1.2c4.9-1.3,9.8-2.7,14.6-4.2
				c2.2-0.7,4.5-1.3,6.7-2c4.4-1.4,8.8-2.8,13.1-4.2c2-0.7,4.1-1.4,6.1-2.1c5.1-1.8,10.1-3.6,14.9-5.5c1-0.4,2.1-0.8,3.1-1.2
				c5.8-2.3,11.5-4.6,17.1-7c0.4-0.2,0.8-0.3,1.2-0.5c0.5-0.2,0.9-0.5,1.4-0.7c9-4,17.6-8.1,25.7-12.4c0.8-0.4,1.5-0.8,2.3-1.3
				c8-4.3,15.5-8.7,22.6-13.3c0.3-0.2,0.7-0.4,1-0.6c1-0.7,2-1.4,3-2.1c2.6-1.8,5.2-3.6,7.8-5.4c1.5-1.1,2.9-2.2,4.4-3.3
				c2.4-1.8,4.7-3.7,6.9-5.5c0.8-0.7,1.7-1.3,2.5-2c0.3-0.3,0.6-0.6,0.9-0.9c5-4.3,9.5-8.7,13.7-13.1c0.3-0.4,0.8-0.7,1.1-1.1
				c0.4-0.4,0.7-0.9,1.1-1.4c3.6-4,7-8.1,9.9-12.2c0.1-0.1,0.1-0.2,0.2-0.3c0.2-0.3,0.4-0.7,0.6-1c2.4-3.5,4.6-7,6.5-10.5
				c0.3-0.5,0.7-1.1,1-1.6c0.2-0.5,0.4-1,0.6-1.4c1.9-3.7,3.6-7.4,4.9-11.1c0-0.1,0.1-0.2,0.2-0.4l0,0c1.4-3.8,2.4-7.7,3.2-11.6
				c0.1-0.5,0.3-0.9,0.4-1.3c0.1-0.6,0.1-1.2,0.2-1.9c0.5-3.3,0.9-6.6,1.1-9.9c0-0.6,0.2-1.2,0.2-1.8s0-1.2,0-1.8V611.3
				c0,1.2-0.2,2.4-0.2,3.7C942.2,618.3,941.9,621.6,941.2,624.9z M908.2,779.5L839,821.8v-61.1l69.2-42.2V779.5z M942.4,250.6
				c-0.2,3.3-0.5,6.6-1.1,9.9c-0.2,1.1-0.3,2.1-0.6,3.2c-0.8,3.9-1.8,7.7-3.2,11.6c-0.1,0.1-0.1,0.3-0.2,0.4
				c-1.4,3.7-3,7.4-4.9,11.1c-0.5,1-1.1,2-1.6,3.1c-1.9,3.5-4.1,7-6.5,10.5c-0.3,0.4-0.5,0.9-0.8,1.3c-3,4.1-6.3,8.2-9.9,12.2
				c-0.7,0.8-1.5,1.6-2.3,2.5c-4.2,4.5-8.7,8.8-13.7,13.1c-1.1,1-2.3,1.9-3.5,2.9c-2.2,1.8-4.5,3.7-6.9,5.5
				c-1.4,1.1-2.9,2.2-4.4,3.3c-2.5,1.8-5.1,3.6-7.7,5.4c-1.3,0.9-2.6,1.8-4,2.7c-7.1,4.6-14.6,9-22.5,13.3c-0.8,0.4-1.6,0.9-2.4,1.3
				c-8.1,4.3-16.7,8.4-25.7,12.4c-0.9,0.4-1.8,0.8-2.7,1.2c-5.5,2.4-11.2,4.8-17,7c-1.1,0.4-2.2,0.8-3.3,1.2
				c-4.8,1.8-9.7,3.6-14.8,5.4c-2.1,0.7-4.1,1.4-6.2,2.1c-4.3,1.4-8.6,2.8-13,4.2c-2.2,0.7-4.5,1.4-6.8,2.1
				c-4.8,1.4-9.6,2.8-14.5,4.1c-1.7,0.5-3.3,0.9-5,1.4c-12.9,3.4-26.3,6.6-40,9.4c-0.6,0.1-1.2,0.2-1.8,0.4c-13.3,2.7-27,5.1-41,7.2
				c-1.2,0.2-2.5,0.4-3.7,0.5c-17.7,2.6-36,4.7-54.7,6.3c-0.9,0.1-1.8,0.1-2.6,0.2c-15.1,1.2-30.5,2.1-46.1,2.7c-2,0.1-4,0.1-6,0.2
				c-9.7,0.3-19.5,0.5-29.4,0.5c-5.2,0-10.4-0.1-15.6-0.2c-12.8-0.2-25.4-0.6-37.9-1.3c-1.8-0.1-3.6-0.2-5.4-0.3
				c-12.1-0.7-23.9-1.6-35.7-2.8c-1.8-0.2-3.6-0.4-5.4-0.5c-11.6-1.2-23.1-2.6-34.3-4.2c-1.7-0.2-3.4-0.5-5.1-0.7
				c-11.6-1.7-22.9-3.6-34-5.7c-1.5-0.3-3-0.6-4.5-0.9c-11.7-2.3-23.1-4.8-34.3-7.5c-1.4-0.3-2.8-0.7-4.1-1
				c-12.4-3.1-24.4-6.5-36-10.1c-1.1-0.3-2.2-0.6-3.2-1c-6.9-2.2-13.6-4.4-20.1-6.8c-1.4-0.5-2.8-1-4.2-1.6
				c-5.2-1.9-10.4-3.9-15.4-6c-2.1-0.8-4.1-1.7-6.1-2.5c-2.6-1.1-5.1-2.2-7.5-3.3c-2.4-1-4.7-2.1-7-3.2c-2.4-1.1-4.8-2.3-7.2-3.4
				c-2.2-1.1-4.5-2.2-6.6-3.3c-2.3-1.2-4.6-2.4-6.8-3.6c-2.1-1.1-4.2-2.3-6.3-3.4c-2.2-1.2-4.3-2.5-6.4-3.8c-2-1.2-3.9-2.3-5.8-3.5
				c-2.1-1.3-4.1-2.6-6.1-3.9c-1.8-1.2-3.7-2.4-5.4-3.6c-1.9-1.3-3.8-2.7-5.6-4.1c-1.7-1.2-3.4-2.5-5-3.7c-1.8-1.4-3.5-2.8-5.2-4.2
				c-1.5-1.3-3.1-2.6-4.6-3.8c-1.6-1.4-3.2-2.9-4.7-4.4c-1.4-1.3-2.8-2.6-4.1-3.9c-1.5-1.5-2.9-3-4.3-4.5c-1.2-1.3-2.5-2.6-3.6-4
				c-1.3-1.5-2.6-3.1-3.8-4.7c-1.1-1.3-2.2-2.7-3.2-4c-1.2-1.6-2.2-3.2-3.3-4.8c-0.9-1.4-1.8-2.7-2.7-4c-1-1.7-1.9-3.3-2.8-5
				c-0.7-1.4-1.5-2.7-2.2-4.1c-0.8-1.7-1.5-3.5-2.2-5.3c-0.5-1.3-1.2-2.6-1.6-4c-0.7-1.8-1.2-3.7-1.7-5.6c-0.4-1.3-0.8-2.5-1.1-3.8
				c-0.5-2.1-0.8-4.2-1.2-6.3c-0.2-1.1-0.4-2.1-0.6-3.2c-0.4-3.2-0.6-6.4-0.6-9.7v145.7c0,3.2,0.2,6.5,0.6,9.7
				c0.1,1.1,0.4,2.1,0.6,3.2c0.3,2.1,0.7,4.2,1.2,6.3c0.3,1.3,0.8,2.5,1.1,3.8c0.5,1.9,1,3.7,1.7,5.6c0.5,1.3,1.1,2.7,1.6,4
				c0.7,1.8,1.4,3.5,2.2,5.3c0.7,1.3,1.4,2.7,2.2,4c0.9,1.7,1.8,3.4,2.8,5c0.8,1.4,1.8,2.7,2.7,4c1.1,1.6,2.1,3.3,3.3,4.9
				c1,1.4,2.1,2.7,3.1,4c1.2,1.6,2.5,3.2,3.8,4.7c1.2,1.3,2.4,2.6,3.6,3.9c1.4,1.5,2.8,3,4.3,4.6c1.3,1.3,2.7,2.6,4.1,3.9
				c1.5,1.5,3.1,2.9,4.7,4.4c1.5,1.3,3,2.6,4.6,3.8c1.7,1.4,3.4,2.9,5.2,4.3c1.6,1.2,3.3,2.5,4.9,3.7c1.9,1.4,3.7,2.8,5.7,4.1
				c1.7,1.2,3.5,2.4,5.3,3.6c2,1.3,4,2.7,6.1,4c1.9,1.2,3.8,2.3,5.8,3.5c2.2,1.3,4.3,2.6,6.5,3.8c2,1.1,4.1,2.3,6.2,3.4
				c2.3,1.2,4.6,2.5,6.9,3.7c2.1,1.1,4.3,2.2,6.6,3.3c2.4,1.2,4.8,2.3,7.3,3.5c2.3,1.1,4.6,2.1,6.9,3.1c2.5,1.1,5.1,2.2,7.6,3.3
				c1,0.4,2,0.9,3,1.3c1,0.4,2,0.8,3,1.2c5,2,10.2,4,15.5,6c1.4,0.5,2.8,1,4.2,1.6c6.6,2.4,13.3,4.6,20.2,6.8
				c0.5,0.2,0.9,0.3,1.4,0.5c0.6,0.2,1.2,0.3,1.7,0.5c11.6,3.6,23.6,7,36.1,10.1c0.7,0.2,1.3,0.4,1.9,0.5c0.7,0.2,1.5,0.3,2.2,0.5
				c11.1,2.7,22.6,5.2,34.3,7.5c0.8,0.2,1.6,0.4,2.4,0.5c0.7,0.1,1.5,0.2,2.2,0.4c11.1,2.1,22.4,4,34,5.7c0.9,0.1,1.8,0.3,2.7,0.5
				c0.8,0.1,1.6,0.2,2.4,0.3c11.2,1.6,22.7,3,34.3,4.2c0.9,0.1,1.8,0.2,2.7,0.3c0.9,0.1,1.8,0.1,2.7,0.2c11.7,1.1,23.6,2.1,35.7,2.8
				c0.9,0.1,1.7,0.1,2.5,0.2c0.9,0.1,1.9,0,2.9,0.1c12.5,0.7,25.1,1.1,37.9,1.3c0.8,0,1.6,0.1,2.5,0.1c4.4,0.1,8.7,0.1,13.1,0.1
				c9.9,0,19.7-0.2,29.4-0.5c1.2,0,2.4,0,3.6-0.1c0.8,0,1.6-0.1,2.3-0.1c15.6-0.5,31-1.4,46.1-2.7c0.6,0,1.2-0.1,1.8-0.1
				c0.3,0,0.6-0.1,0.9-0.1c18.7-1.6,36.9-3.7,54.7-6.3c0.6-0.1,1.3-0.1,1.9-0.2c0.6-0.1,1.2-0.2,1.8-0.3c14-2.1,27.7-4.5,41-7.2
				c0.6-0.1,1.2-0.2,1.8-0.3c13.8-2.8,27.1-6,40.1-9.4c0.3-0.1,0.6-0.1,0.9-0.2c1.4-0.4,2.7-0.8,4.1-1.2c4.9-1.3,9.8-2.7,14.6-4.1
				c2.2-0.7,4.5-1.4,6.7-2c4.4-1.4,8.8-2.8,13.1-4.2c2-0.7,4.1-1.4,6.1-2.1c5.1-1.8,10.1-3.6,14.9-5.5c1-0.4,2.1-0.8,3.1-1.2
				c5.8-2.3,11.5-4.6,17.1-7c0.4-0.2,0.8-0.3,1.2-0.5c0.5-0.2,0.9-0.5,1.4-0.7c9-4,17.6-8.1,25.7-12.4c0.8-0.4,1.5-0.9,2.3-1.3
				c8-4.3,15.5-8.7,22.6-13.3c0.3-0.2,0.7-0.4,1-0.6c1-0.7,2-1.4,3-2.1c2.6-1.8,5.2-3.6,7.8-5.4c1.5-1.1,2.9-2.2,4.4-3.3
				c2.4-1.8,4.7-3.7,6.9-5.5c0.8-0.7,1.7-1.3,2.5-2c0.3-0.3,0.6-0.6,0.9-0.9c5-4.3,9.5-8.7,13.7-13.1c0.3-0.4,0.8-0.7,1.1-1.1
				c0.4-0.4,0.7-0.9,1.1-1.4c3.6-4,7-8,9.9-12.2c0.1-0.1,0.1-0.2,0.2-0.3c0.2-0.3,0.4-0.7,0.6-1c2.4-3.5,4.6-7,6.5-10.5
				c0.3-0.5,0.7-1.1,1-1.6c0.2-0.5,0.4-1,0.6-1.4c1.9-3.7,3.6-7.4,4.9-11.1c0-0.1,0.1-0.2,0.2-0.4c0,0,0,0,0-0.1
				c1.4-3.8,2.4-7.7,3.2-11.6c0.1-0.5,0.3-0.9,0.4-1.3c0.1-0.6,0.1-1.2,0.2-1.9c0.5-3.3,0.9-6.6,1.1-9.9c0-0.6,0.2-1.2,0.2-1.8
				c0-0.6,0-1.2,0-1.8V247C942.5,248.2,942.4,249.4,942.4,250.6z"/>
		</g>
	</g>
	<g>
		<g>
			<path class="st1" d="M512,81.2c-237.9,0-430.6,81.6-430.6,182.2S274.1,445.6,512,445.6c237.7,0,430.6-81.5,430.6-182.1
				S749.7,81.2,512,81.2z M738.9,381.2l-8.4-0.9l-14.6-5.8c-12-4.3-22.5-8.3-32.9-11.7c-15.7-4.9-30.3-10.2-41.8-18.7l-4.7-4.6
				c-3.6-3.4-6.8-6.4-4.6-10.1c2.1-3.9,8.4-5.1,11.1-5.7c15.2-3.3,30.5-5,46.7-5.6c-26.7-7.4-46-14.8-69.6-17.9
				c-11-1.6-18.8-5.9-24.5-12.6l-8.3-10.4c-9.4-11.3-17.7-21.7-25.4-32.3c-19.2-26.8-51-48.8-95.5-64.8l-13.1-4l-9.9-2.8
				c-7.8-2.5-16.8-2.8-26.7-3.5l-10.5-0.7c-6.8-0.6-13.1-2.2-17.8-4.3c-12-5.5-26.7-8.9-38.2-11.4c0,4,2.1,5.8,4.7,7.3
				c16.2,11,27.6,23.8,34.8,39.7c4.6,9.4,11.4,16.4,20.8,22.3c4.7,2.8,6.2,7.9,5.7,11.6c-0.6,3.3-2.1,6.1-4.3,8.8
				c-10.1,17.6-10.2,32.5,0.2,46.8c2.2-10.3,7-20.3,23.3-27.8l7.4-3.3l7.8,5.8c11.4,18.9,28.6,37.2,51.5,54.3l4.2,3.1l-10.5,6.9
				l-8.9-1.6l-8.9-4.9c-8.4-4.3-15.7-8.3-21.9-12.9c-5.2-3.7-9.9-7.6-14.6-12.2l3.1,5.8c-3.2,7.9-12.7,13-24.7,13
				c-6.8,0-13.1-1.6-18.8-4.7c-15.1-7.7-20.8-17.7-24.4-26.8c-7.2-18.6,0.3-36.1,8.3-51.3l-7.3-7.3c-4.2-4-8.3-7.9-12-12.2
				c-3.1-3.7-5.2-7.9-7.8-11.9c-2.1-4-3.6-7-5.7-9.7c-2.1-3.4-4.7-6.4-8.3-9.8l-6.8-4.9c-6.3-4.9-9.9-7.9-13-11
				c-4.2-4-6.7-9.1-7.2-13.7c-0.5-4.9,2.2-9.4,8-12.7c5.8-3.6,13.7-5.7,22.6-5.7c25.2,0.1,44,6.9,60.2,13.6c5.2,2.1,7.3,2.5,7.8,2.5
				c35.1,0.2,62.3,9.4,84.3,18.6c35.5,14.7,63.7,32.8,83.5,53.2c5.2,5.2,9.4,10.7,13,16.2l6.7,9.1l24.4,29.9l8.9,5.2
				c26.7,5.6,51.8,14.8,80.5,29.8l11,7.3l6.2,6.7l-0.6,3.3l-6.3,3l-47.8,5.6l6.3,1.5c17.8,5.6,33.5,13.2,46.5,22.7l12,7.9l1,6.4
				L738.9,381.2z M430.9,198.8l-8.4,4.8l-25-22.9l7.4-4.2l11.5-1.8c6.8,0,12.6,2.2,17.8,6.2C441.5,186.7,440.4,193.1,430.9,198.8z"
				/>
		</g>
	</g>
</g>
</svg>
