<?xml version="1.0" encoding="utf-8"?>
<!-- Generator: Adobe Illustrator 19.0.0, SVG Export Plug-In . SVG Version: 6.00 Build 0)  -->
<svg version="1.1" id="图层_1" xmlns="http://www.w3.org/2000/svg" xmlns:xlink="http://www.w3.org/1999/xlink" x="0px" y="0px"
	 viewBox="-222 345.9 150 150" style="enable-background:new -222 345.9 150 150;" xml:space="preserve">
<style type="text/css">
	.st0{opacity:0.7;fill:#FFFFFF;enable-background:new    ;}
	.st1{fill:#FFFFFF;}
	.st2{opacity:0.59;fill:#FFFFFF;enable-background:new    ;}
	.st3{opacity:0.69;fill:#FFFFFF;enable-background:new    ;}
	.st4{opacity:0.8;fill:#FFFFFF;enable-background:new    ;}
	.st5{fill:#2873FB;}
	.st6{fill:none;}
</style>
<g>
	<polygon class="st0" points="-97.4,401.5 -97.5,478.2 -113.4,487.3 -113.2,410.6 	"/>
	<polygon class="st1" points="-180.6,353.3 -196.5,362.4 -113.2,410.6 -97.4,401.5 	"/>
	<polygon class="st2" points="-121.4,482.6 -131.6,488.5 -131.5,476.8 	"/>
	<polygon class="st3" points="-166.7,456.3 -166.8,468 -131.6,488.5 -131.5,476.8 	"/>
	<line class="st4" x1="-196.6" y1="439" x2="-113.4" y2="487.3"/>
	<path class="st5" d="M-154.9,452.1"/>
	<path class="st5" d="M-155,457"/>
	<polygon class="st6" points="-182.3,376.5 -127.5,408.5 -127.5,473.1 -182.3,441.2 	"/>
	<path class="st4" d="M-196.5,362.4l-0.2,76.7l83.2,48.2l0.2-76.7L-196.5,362.4z M-129.2,442.8l-11.5-6.7c0,0,0,0,0,0
		c-0.6-0.4-1.3-1.1-1.6-2l-2.6-8l-2.6,4.8c-0.2,0.3-0.4,0.4-0.7,0.5c-0.3,0.1-0.6,0-1-0.2l-1.5-0.9l-1.6,7.4
		c-0.1,0.3-0.2,0.5-0.4,0.7c0,0,0,0,0,0c0,0-0.1,0.1-0.1,0.1c-0.2,0.1-0.4,0.1-0.7,0.1c-0.9-0.2-1.8-1.4-2.1-2.6l-3.9-19.3
		l-3.5,10.3c0,0,0,0,0,0c0,0.1-0.1,0.2-0.1,0.2c0,0,0,0,0,0.1c0,0.1-0.1,0.1-0.1,0.2c0,0,0,0-0.1,0c-0.1,0-0.1,0.1-0.2,0.1
		c0,0-0.1,0-0.1,0c-0.1,0-0.1,0-0.2,0c0,0-0.1,0-0.1,0c0,0,0,0-0.1,0c0,0-0.1,0-0.1,0c0,0-0.1,0-0.1,0c-0.1,0-0.1,0-0.2-0.1
		c-0.1,0-0.1,0-0.2-0.1c-0.1,0-0.1-0.1-0.2-0.1c-0.1,0-0.1-0.1-0.2-0.1c-0.1,0-0.1-0.1-0.2-0.1c0,0-0.1-0.1-0.1-0.1
		c0,0,0-0.1-0.1-0.1c0,0-0.1-0.1-0.1-0.1c-0.1-0.1-0.1-0.1-0.2-0.2c0,0-0.1-0.1-0.1-0.1c-0.1-0.1-0.1-0.2-0.2-0.3c0,0,0-0.1-0.1-0.1
		c-0.1-0.1-0.1-0.2-0.2-0.3c0,0,0-0.1,0-0.1c0-0.1-0.1-0.2-0.1-0.4c0,0,0,0,0,0l-1.4-4.8l-7-4.1c1.2,11.5,8.7,24.3,18,30.7v-2.7
		c0-1.1,0.8-1.6,1.7-1c0.9,0.5,1.7,1.9,1.7,3v2.7c7.1,3.5,13.4,2,16.4-3.9c0.4-0.8,1.4-0.6,2.3,0.3c0.9,1,1.2,2.4,0.9,3.2
		c-3.6,6.9-11.2,8.6-19.6,4.4v3c0,1.1-0.8,1.6-1.7,1c-0.9-0.5-1.7-1.9-1.7-3v-3c-11.2-7.5-20.2-23-21.4-36.7l-2.5-1.5
		c-0.9-0.5-1.7-1.9-1.7-3s0.8-1.6,1.7-1l2.4,1.4c0.4-13.7,9.8-19.6,21.5-13.8v-2.9c0-1.1,0.8-1.6,1.7-1c0.9,0.5,1.7,1.9,1.7,3v2.9
		c9.1,6,17,17.6,20.2,29.5c0.3,1.2-0.1,2.2-1,2c-0.9-0.1-1.9-1.2-2.2-2.5c-2.6-10.1-9.3-19.9-16.9-25v2.8c0,1.1-0.8,1.6-1.7,1
		c-0.9-0.5-1.7-1.9-1.7-3v-2.8c-9.9-4.7-17.7,0.3-18.1,11.8l8.2,4.8c0.2,0.1,0.3,0.2,0.4,0.3c0.6,0.4,1,1.2,1.3,2l0.1,0.2l3.8-11.2
		c0.2-0.7,0.9-0.8,1.5-0.5c0.1,0,0.2,0.1,0.3,0.2c0,0,0,0,0,0c0.7,0.5,1.3,1.4,1.5,2.3l3.6,17.6l0.4-1.9c0.2-0.8,0.8-1.1,1.7-0.6
		l1.9,1.1l3.7-6.9c0,0,0,0,0,0c0-0.1,0.1-0.1,0.1-0.1c0,0,0.1-0.1,0.1-0.1c0,0,0.1-0.1,0.1-0.1c0,0,0.1,0,0.1-0.1c0,0,0.1,0,0.1,0
		c0,0,0.1,0,0.1,0c0,0,0,0,0.1,0c0,0,0.1,0,0.1,0c0.1,0,0.1,0,0.2,0c0.1,0,0.1,0,0.2,0c0.1,0,0.1,0,0.2,0.1c0.1,0,0.1,0.1,0.2,0.1
		c0.1,0,0.1,0.1,0.2,0.1c0.1,0,0.1,0.1,0.2,0.1c0.1,0,0.1,0.1,0.2,0.1c0.1,0.1,0.1,0.1,0.2,0.2c0,0,0.1,0.1,0.1,0.1
		c0,0,0,0.1,0.1,0.1c0.1,0.1,0.1,0.1,0.1,0.2c0,0.1,0.1,0.1,0.1,0.2c0,0.1,0.1,0.1,0.1,0.2c0,0.1,0.1,0.2,0.1,0.2
		c0,0.1,0.1,0.1,0.1,0.2c0,0.1,0.1,0.2,0.1,0.3c0,0,0,0.1,0,0.1l3.7,11.2l10.5,6.1c0.9,0.5,1.7,1.9,1.7,3S-128.3,443.3-129.2,442.8z
		"/>
</g>
</svg>
