<?xml version="1.0" encoding="utf-8"?>
<!-- Generator: Adobe Illustrator 19.0.0, SVG Export Plug-In . SVG Version: 6.00 Build 0)  -->
<svg version="1.1" id="图层_1" xmlns="http://www.w3.org/2000/svg" xmlns:xlink="http://www.w3.org/1999/xlink" x="0px" y="0px"
	 viewBox="-222 345.9 150 150" style="enable-background:new -222 345.9 150 150;" xml:space="preserve">
<style type="text/css">
	.st0{fill:#FFFFFF;}
	.st1{opacity:0.7;fill:#FFFFFF;enable-background:new    ;}
	.st2{opacity:0.8;fill:#FFFFFF;enable-background:new    ;}
	.st3{opacity:0.6;fill:#FFFFFF;enable-background:new    ;}
	.st4{fill:url(#SVGID_1_);enable-background:new    ;}
</style>
<g>
	<polygon class="st0" points="-131.7,369.8 -165.3,389.4 -199.2,369.8 -165.5,350.3 	"/>
	<polygon class="st1" points="-94.7,433.3 -94.8,472 -120,486.7 -120,448 	"/>
	<path class="st2" d="M-156.8,426.7l-0.1,38.7l36.8,21.3l0.1-38.7L-156.8,426.7z M-126.4,459.2c0,2.5-2.7,4-4.9,2.8l-16.6-9.6
		c-1.6-0.9-2.6-2.7-2.6-4.6c0-2.5,2.7-4,4.9-2.8l16.6,9.6C-127.4,455.6-126.4,457.3-126.4,459.2L-126.4,459.2z"/>
	<polygon class="st1" points="-122.3,485.4 -122.4,491.5 -144.1,478.9 -144.1,472.8 	"/>
	<polygon class="st3" points="-120,486.7 -122.3,485.4 -122.4,491.5 -107.4,482.8 -107.4,479.3 	"/>
	<linearGradient id="SVGID_1_" gradientUnits="userSpaceOnUse" x1="-112.305" y1="411.5128" x2="-107.082" y2="420.5594">
		<stop  offset="0.4664" style="stop-color:#FFFFFF"/>
		<stop  offset="1" style="stop-color:#FFFFFF;stop-opacity:0.4"/>
	</linearGradient>
	<path class="st4" d="M-106,418.6c0-0.1,0-0.1,0-0.2s0-0.1,0-0.2c0-0.1,0-0.1,0-0.2c0-0.1,0-0.1,0-0.2c0,0,0,0,0,0l0,0
		c0-0.1,0-0.1,0-0.2c0-0.1,0-0.1,0-0.2c0-0.1,0-0.1,0-0.2c0-0.1,0-0.1,0-0.2c0-0.1,0-0.1,0-0.2c0,0,0,0,0,0c0,0,0,0,0,0
		c0-0.1,0-0.1,0-0.2c0-0.1,0-0.1,0-0.2c0-0.1,0-0.1,0-0.2s0-0.1,0-0.2c0,0,0-0.1,0-0.1c0,0,0,0,0,0c0,0,0,0,0,0c0-0.1,0-0.1,0-0.2
		c0-0.1,0-0.1-0.1-0.2c0-0.1,0-0.2-0.1-0.2c0-0.1-0.1-0.2-0.1-0.2c0,0,0,0,0,0c0,0,0,0,0-0.1c-0.1-0.2-0.1-0.3-0.2-0.5
		c0-0.1-0.1-0.2-0.2-0.3l0,0c0,0,0,0,0,0c0-0.1-0.1-0.2-0.1-0.2c0-0.1-0.1-0.1-0.1-0.2c0-0.1-0.1-0.1-0.1-0.2c0-0.1-0.1-0.1-0.1-0.2
		c0,0,0,0,0,0c0,0,0,0,0,0c0,0-0.1-0.1-0.1-0.1c0-0.1-0.1-0.1-0.1-0.2c0-0.1-0.1-0.1-0.1-0.2c0-0.1-0.1-0.1-0.1-0.2
		c0,0,0-0.1-0.1-0.1c0,0,0,0,0,0c0,0,0,0-0.1-0.1c0-0.1-0.1-0.1-0.1-0.1c0,0-0.1-0.1-0.1-0.1c0,0-0.1-0.1-0.1-0.1
		c0,0-0.1-0.1-0.1-0.1c0,0,0,0,0,0c0,0-0.1-0.1-0.1-0.1c0,0-0.1-0.1-0.1-0.1c0,0-0.1,0-0.1-0.1c0,0,0,0,0,0c0,0,0,0,0,0
		c0,0-0.1-0.1-0.1-0.1c0,0-0.1-0.1-0.1-0.1c0,0,0,0,0,0s0,0,0,0c0,0-0.1,0-0.1,0c0,0-0.1,0-0.1-0.1c0,0,0,0-0.1,0c0,0,0,0,0,0
		c0,0,0,0,0,0c0,0-0.1,0-0.1-0.1c0,0-0.1,0-0.1,0c0,0,0,0,0,0c0,0,0,0,0,0c-0.1,0-0.1,0-0.2,0c0,0,0,0-0.1,0c0,0,0,0-0.1,0
		s0,0-0.1,0c-0.1,0-0.1,0-0.2,0c0,0,0,0,0,0c0,0,0,0-0.1,0c-0.1,0-0.1,0-0.2,0c0,0,0,0,0,0c-0.1,0-0.2,0-0.3,0.1l-3.2,1.1
		c0.1,0,0.2-0.1,0.3-0.1c0.1,0,0.1,0,0.2,0c0,0,0,0,0.1,0c0.1,0,0.2,0,0.3,0c0,0,0,0,0.1,0c0.1,0,0.2,0,0.3,0.1c0,0,0,0,0,0
		c0.1,0,0.2,0.1,0.3,0.1c0,0,0,0,0,0c0.1,0,0.2,0.1,0.3,0.1c0,0,0,0,0,0c0.1,0.1,0.2,0.1,0.3,0.2c0,0,0,0,0,0
		c0.1,0.1,0.2,0.2,0.3,0.2c0.2,0.2,0.4,0.4,0.6,0.6c0,0,0,0,0,0c0.2,0.2,0.4,0.5,0.5,0.7c0,0,0,0,0,0c0.2,0.3,0.3,0.5,0.4,0.8
		c0,0,0,0,0,0c0.1,0.3,0.3,0.6,0.4,0.9c0,0,0,0,0,0c0.1,0.3,0.2,0.6,0.2,0.9c0,0,0,0,0,0c0.1,0.3,0.1,0.6,0.1,0.9c0,0,0,0,0,0
		c0,0.4,0,0.9,0,0.9c0,0.3-0.1,0.8-0.1,1c-0.3,1.3-1.1,1.8-1.1,1.8l2.8-1c0.2-0.1,0.3-0.1,0.4-0.2c0,0,0.1-0.1,0.1-0.1
		c0.1,0,0.1-0.1,0.2-0.1c0.1-0.1,0.1-0.1,0.2-0.2c0,0,0,0,0,0c0,0,0,0,0,0c0-0.1,0.1-0.1,0.1-0.2c0-0.1,0.1-0.1,0.1-0.2
		c0-0.1,0.1-0.1,0.1-0.2c0,0,0,0,0-0.1c0,0,0,0,0,0c0,0,0,0,0-0.1c0-0.1,0-0.1,0.1-0.2c0-0.1,0-0.1,0-0.2c0-0.1,0-0.1,0-0.2
		s0-0.1,0-0.2c0,0,0,0,0,0C-106.1,418.7-106.1,418.7-106,418.6z"/>
	<polygon class="st0" points="-107.2,426.1 -107.3,433.3 -110.4,435.2 -113.5,433.3 -113.5,422.5 -131.6,412.1 -156.8,426.7 
		-120,448 -94.7,433.3 	"/>
	<path class="st2" d="M-199.2,369.8l-0.1,77.1l33.9,19.5l0.1-77.1L-199.2,369.8z M-192.2,423.4l-2.1-1.2l0-43.7l2.1,1.2
		L-192.2,423.4z M-185.8,427.2l-2.1-1.2l0-43.7l2.1,1.2L-185.8,427.2z"/>
	<path class="st1" d="M-165.3,389.4l-0.1,77.1l8.5-5l0.1-34.8l25.1-14.6l0.1-42.4L-165.3,389.4z M-155,416.6l-5.5,3.2l0-6.2l5.5-3.2
		L-155,416.6z M-155,405.7l-5.5,3.2l0-6.2l5.5-3.2L-155,405.7z M-155,395l-5.5,3.2l0-6.2l5.5-3.2L-155,395z M-145.7,411.3l-5.5,3.2
		l0-6.2l5.5-3.2L-145.7,411.3z M-145.7,400.4l-5.5,3.2l0-6.2l5.5-3.2L-145.7,400.4z M-145.7,389.7l-5.5,3.2l0-6.2l5.5-3.2
		L-145.7,389.7z"/>
	<g>
		<path class="st1" d="M-107.3,430.4l0-9.8c-0.1,0.1-0.2,0.1-0.3,0.1l-2.8,1l0,10.5L-107.3,430.4z"/>
		<polygon class="st1" points="-109,434.4 -107.3,433.3 -107.3,433.3 		"/>
	</g>
	<g>
		<polygon class="st2" points="-111,434.8 -110.4,435.2 -110.4,435.2 		"/>
		<path class="st2" d="M-110.4,421.8c0.5-0.3,0.9-1,1.1-1.9c0.4-2.2-0.6-5.2-2.3-6.7c-1.7-1.5-3.4-0.9-3.9,1.3
			c-0.4,2,0.5,4.8,1.9,6.3l0,9.6l3.1,1.8L-110.4,421.8z"/>
	</g>
</g>
</svg>
