<?xml version="1.0" encoding="utf-8"?>
<!-- Generator: Adobe Illustrator 19.0.0, SVG Export Plug-In . SVG Version: 6.00 Build 0)  -->
<svg version="1.1" id="图层_1" xmlns="http://www.w3.org/2000/svg" xmlns:xlink="http://www.w3.org/1999/xlink" x="0px" y="0px"
	 viewBox="-222 345.9 150 150" style="enable-background:new -222 345.9 150 150;" xml:space="preserve">
<style type="text/css">
	.st0{opacity:0.8;fill:#FFFFFF;enable-background:new    ;}
	.st1{fill:#FFFFFF;}
	.st2{opacity:0.7;fill:#FFFFFF;enable-background:new    ;}
	.st3{opacity:0.6;}
	.st4{opacity:0.6;fill:#FFFFFF;}
</style>
<g>
	<path class="st0" d="M-146.7,431c0.4,0.2,3.6,1.9,7.9,2.6c4.5,0.7,7.4,0.2,7.5,0.1l0.1,0l0.1,0.2v0c0.4,0.5,3.2,4.2,7.5,8.6
		c0.6,0.6,1.1,1.1,1.7,1.6l0.1-45.1l-49.4-28.5l9.2,5.3l13.4,7.7l13.4,7.7l13.4,7.7l-6.7,3.4l-6.7-11.2l-6.7,3.4l-6.7-11.2l-6.7,3.4
		l-6.7-11.2l-6.7,3.4l-6.7-11.2l0,0l-6.7,3.4l-6.7-11.2l0,0l-0.2,92.7l67.1,38.7l0-14.6c-3.2,1-6.8,0.8-9.2-0.6
		c-2.7-1.6-6.9-6.4-10.5-12c-4-6.3-5.3-10-5.3-13.9v-19.5L-146.7,431z M-155.4,402.6c0-0.7,0.5-0.9,1.1-0.6l22.1,12.8
		c0.6,0.4,1.1,1.2,1.1,1.9v0.1c0,0.7-0.5,0.9-1.1,0.6l-22.1-12.8C-154.9,404.2-155.4,403.4-155.4,402.6L-155.4,402.6z M-179.7,395.2
		c0-0.6,0.5-0.9,1.1-0.5l4.8,2.8v-2.8l-4.8-2.8c-0.6-0.3-1.1-1.1-1.1-1.8v-0.2c0-0.6,0.5-0.9,1.1-0.5l3.4,2
		c-0.2-0.2-0.5-0.4-0.7-0.7l-3.4-5.7c-0.4-0.7-0.4-1.4,0-1.6l0.1-0.1c0.4-0.2,1.1,0.2,1.5,0.9l3.4,5.7c0.4,0.7,0.4,1.4,0,1.6
		l-0.1,0.1c-0.2,0.1-0.4,0.1-0.7-0.1l4.8,2.8c-0.2-0.2-0.5-0.4-0.7-0.7l-0.1-0.2c-0.4-0.7-0.4-1.4,0-1.6l3.4-1.7
		c0.4-0.2,1.1,0.2,1.5,0.9l0.1,0.2c0.4,0.7,0.4,1.4,0,1.6l-3.4,1.7c-0.2,0.1-0.4,0.1-0.7-0.1l3.3,1.9c0.6,0.3,1.1,1.1,1.1,1.8v0.2
		c0,0.6-0.5,0.9-1.1,0.5l-4.7-2.7v2.8l4.7,2.7c0.6,0.3,1.1,1.1,1.1,1.8v0.2c0,0.6-0.5,0.9-1.1,0.5l-4.7-2.7v4.7
		c0,1.5-0.5,1.7-1.1,1.4l-0.2-0.1c-0.6-0.3-1.1-1.1-1.1-2.6v-4.7l-4.8-2.8c-0.6-0.3-1.1-1.1-1.1-1.8V395.2z M-155.4,453.8
		c0,0.7-0.5,0.9-1.1,0.6l-22.1-12.8c-0.6-0.4-1.1-1.2-1.1-1.9v-0.1c0-0.7,0.5-0.9,1.1-0.6l22.1,12.8
		C-155.9,452.2-155.4,453-155.4,453.8L-155.4,453.8z M-155.4,445.2c0,0.7-0.5,0.9-1.1,0.6l-22.1-12.8c-0.6-0.4-1.1-1.2-1.1-1.9V431
		c0-0.7,0.5-0.9,1.1-0.6l22.1,12.8C-155.9,443.6-155.4,444.5-155.4,445.2L-155.4,445.2z M-155.4,436c0,0.7-0.5,0.9-1.1,0.6
		l-22.1-12.8c-0.6-0.4-1.1-1.2-1.1-1.9v-0.1c0-0.7,0.5-0.9,1.1-0.6l22.1,12.8C-155.9,434.4-155.4,435.3-155.4,436L-155.4,436z
		 M-155.4,427.5c0,0.7-0.5,0.9-1.1,0.6l-22.1-12.8c-0.6-0.4-1.1-1.2-1.1-1.9v-0.1c0-0.7,0.5-0.9,1.1-0.6l22.1,12.8
		C-155.9,425.9-155.4,426.7-155.4,427.5L-155.4,427.5z M-154.3,413.1c-0.6-0.4-1.1-1.2-1.1-1.9v-0.1c0-0.7,0.5-0.9,1.1-0.6
		l22.1,12.8c0.6,0.4,1.1,1.2,1.1,1.9v0.1c0,0.7-0.5,0.9-1.1,0.6L-154.3,413.1z"/>
	<polygon class="st1" points="-104.8,389 -121.8,398.9 -189,360.1 -172,350.3 	"/>
	<polygon class="st2" points="-104.8,389 -105,481.7 -122,491.5 -121.8,398.9 	"/>
	<g class="st3">
		<polygon class="st1" points="-182.2,371.3 -175.5,367.9 -188.9,360.1 		"/>
		<polygon class="st1" points="-168.8,379.1 -162.1,375.6 -175.5,367.9 		"/>
		<polygon class="st1" points="-155.4,386.8 -148.7,383.4 -162.1,375.6 		"/>
		<polygon class="st1" points="-142,394.5 -135.3,391.1 -148.7,383.4 		"/>
		<polygon class="st1" points="-135.3,391.1 -128.6,402.3 -121.9,398.9 		"/>
	</g>
	<path class="st1" d="M-122,457.2l-10.2,5.2c-0.4,0.2-0.8,0.1-1.3-0.2c0,0,0,0,0,0c0,0,0,0,0,0c-0.5-0.3-1-0.8-1.3-1.4l-0.1-0.1l0,0
		l-5.1-8.3c-0.7-1.2-0.7-2.6,0.1-3l0,0c0.8-0.4,2,0.3,2.8,1.5l3.6,5.9l11.5-5.9V457.2z"/>
	<path class="st4" d="M-132.2,414.9l-22.1-12.8c-0.6-0.4-1.1-0.1-1.1,0.6v0.1c0,0.7,0.5,1.5,1.1,1.9l22.1,12.8
		c0.6,0.4,1.1,0.1,1.1-0.6v-0.1C-131.1,416.1-131.6,415.2-132.2,414.9z"/>
	<path class="st4" d="M-132.2,423.4l-22.1-12.8c-0.6-0.4-1.1-0.1-1.1,0.6v0.1c0,0.7,0.5,1.5,1.1,1.9l22.1,12.8
		c0.6,0.4,1.1,0.1,1.1-0.6v-0.1C-131.1,424.6-131.6,423.8-132.2,423.4z"/>
	<path class="st4" d="M-156.5,425.5l-22.1-12.8c-0.6-0.4-1.1-0.1-1.1,0.6v0.1c0,0.7,0.5,1.5,1.1,1.9l22.1,12.8
		c0.6,0.4,1.1,0.1,1.1-0.6v-0.1C-155.4,426.7-155.9,425.9-156.5,425.5z"/>
	<path class="st4" d="M-156.5,434.1l-22.1-12.8c-0.6-0.4-1.1-0.1-1.1,0.6v0.1c0,0.7,0.5,1.5,1.1,1.9l22.1,12.8
		c0.6,0.4,1.1,0.1,1.1-0.6v-0.1C-155.4,435.3-155.9,434.4-156.5,434.1z"/>
	<path class="st4" d="M-156.5,443.3l-22.1-12.8c-0.6-0.4-1.1-0.1-1.1,0.6v0.1c0,0.7,0.5,1.5,1.1,1.9l22.1,12.8
		c0.6,0.4,1.1,0.1,1.1-0.6v-0.1C-155.4,444.5-155.9,443.6-156.5,443.3z"/>
	<path class="st4" d="M-156.5,451.8l-22.1-12.8c-0.6-0.4-1.1-0.1-1.1,0.6v0.1c0,0.7,0.5,1.5,1.1,1.9l22.1,12.8
		c0.6,0.4,1.1,0.1,1.1-0.6v-0.1C-155.4,453-155.9,452.2-156.5,451.8z"/>
</g>
</svg>
