<?xml version="1.0" encoding="utf-8"?>
<!-- Generator: Adobe Illustrator 19.0.0, SVG Export Plug-In . SVG Version: 6.00 Build 0)  -->
<svg version="1.1" id="图层_1" xmlns="http://www.w3.org/2000/svg" xmlns:xlink="http://www.w3.org/1999/xlink" x="0px" y="0px"
	 viewBox="-222 345.9 150 150" style="enable-background:new -222 345.9 150 150;" xml:space="preserve">
<style type="text/css">
	.st0{opacity:0.7;fill:#FFFFFF;enable-background:new    ;}
	.st1{fill:#FFFFFF;}
	.st2{opacity:0.59;fill:#FFFFFF;enable-background:new    ;}
	.st3{opacity:0.69;fill:#FFFFFF;enable-background:new    ;}
	.st4{opacity:0.8;fill:#FFFFFF;enable-background:new    ;}
</style>
<g>
	<polygon class="st0" points="-97.5,401.6 -97.6,478.1 -113.4,487.2 -113.3,410.6 	"/>
	<polygon class="st1" points="-180.6,353.4 -196.4,362.5 -113.3,410.6 -97.5,401.6 	"/>
	<polygon class="st2" points="-121.5,482.5 -131.6,488.4 -131.5,476.7 	"/>
	<polygon class="st3" points="-166.7,456.3 -166.8,468 -131.6,488.4 -131.5,476.7 	"/>
	<path class="st4" d="M-196.4,362.5l-0.2,76.6l83.1,48.2l0.2-76.6L-196.4,362.5z M-157.8,450.5c-12.6-7.3-22.9-25-22.9-39.5
		s10.2-20.5,22.9-13.2c12.6,7.3,22.9,25,22.9,39.5C-134.9,451.8-145.1,457.7-157.8,450.5z M-121.1,469.1l-1.8-3.1l-6.3,3.6l0,0l0,0
		l-4.9-8.5l-5.4,3.1l-2.2-3.8l7.6-4.4l0,0.1l0,0l4.9,8.5l4.1-2.4l-2-3.4l7.9,2.3L-121.1,469.1z"/>
	<path class="st4" d="M-157.8,404.2c-9.5-5.5-17.2-1-17.2,10c0,11,7.7,24.3,17.2,29.8c9.5,5.5,17.2,1,17.2-10
		C-140.5,423-148.3,409.7-157.8,404.2z M-157.8,437.4c-6.4-3.7-11.5-12.6-11.5-19.9c0-7.3,5.2-10.3,11.5-6.7
		c6.4,3.7,11.5,12.6,11.5,19.9C-146.3,438-151.4,441-157.8,437.4z"/>
	<path class="st4" d="M-152.5,427.1c0,3.4-2.4,4.8-5.3,3.1c-2.9-1.7-5.3-5.8-5.3-9.2c0-3.4,2.4-4.8,5.3-3.1
		C-154.8,419.6-152.5,423.7-152.5,427.1z"/>
	<line class="st4" x1="-196.5" y1="439" x2="-113.4" y2="487.2"/>
</g>
</svg>
